<svg width="760" height="776" viewBox="0 0 760 776" fill="none" xmlns="http://www.w3.org/2000/svg">
<rect width="92.4762" height="94.0743" transform="matrix(-1 0 0 1 759.917 1.02246)" fill="#FFF8E5"/>
<path d="M667.441 7.15762H661.41V101.232H667.441V7.15762Z" fill="#CABA8E"/>
<path d="M661.41 7.15762L667.441 1.02246V7.15762H661.41Z" fill="#CABA8E"/>
<path d="M753.886 95.0979H667.441V101.233H753.886V95.0979Z" fill="#E8E3D3"/>
<path d="M661.41 101.233L667.441 95.0979V101.233H661.41Z" fill="#E8E3D3"/>
<path d="M759.918 95.0977L753.886 101.233V95.0979L759.918 95.0977Z" fill="#E8E3D3"/>
<rect width="92.4762" height="94.0743" transform="matrix(-1 0 0 1 665.43 1.02246)" fill="#E1CF9E"/>
<path d="M572.954 7.15762H566.923V101.232H572.954V7.15762Z" fill="#CABA8E"/>
<path d="M566.923 7.15762L572.954 1.02246V7.15762H566.923Z" fill="#CABA8E"/>
<path d="M659.399 95.0979H572.954V101.233H659.399V95.0979Z" fill="#D6C596"/>
<path d="M566.923 101.233L572.954 95.0979V101.233H566.923Z" fill="#D6C596"/>
<path d="M665.43 95.0977L659.399 101.233V95.0979L665.43 95.0977Z" fill="#D6C596"/>
<rect width="92.4762" height="94.0743" transform="matrix(-1 0 0 1 570.943 1.02246)" fill="#FFF8E5"/>
<path d="M478.467 7.15762H472.436V101.232H478.467V7.15762Z" fill="#CABA8E"/>
<path d="M472.436 7.15762L478.467 1.02246V7.15762H472.436Z" fill="#CABA8E"/>
<path d="M564.912 95.0979H478.467V101.233H564.912V95.0979Z" fill="#E8E3D3"/>
<path d="M472.436 101.233L478.467 95.0979V101.233H472.436Z" fill="#E8E3D3"/>
<path d="M570.943 95.0977L564.912 101.233V95.0979L570.943 95.0977Z" fill="#E8E3D3"/>
<rect width="92.4762" height="94.0743" transform="matrix(-1 0 0 1 476.456 0)" fill="#E1CF9E"/>
<path d="M383.979 6.13516H377.948V100.21H383.979V6.13516Z" fill="#CABA8E"/>
<path d="M377.948 6.13516L383.979 0V6.13516H377.948Z" fill="#CABA8E"/>
<path d="M470.425 94.0749H383.98V100.21H470.425V94.0749Z" fill="#D6C596"/>
<path d="M377.949 100.21L383.98 94.0749V100.21H377.949Z" fill="#D6C596"/>
<path d="M476.456 94.0747L470.425 100.21V94.0749L476.456 94.0747Z" fill="#D6C596"/>
<rect width="92.4762" height="94.0743" transform="matrix(-1 0 0 1 381.969 0)" fill="#FFF8E5"/>
<path d="M289.492 6.13516H283.461V100.21H289.492V6.13516Z" fill="#CABA8E"/>
<path d="M283.461 6.13516L289.492 0V6.13516H283.461Z" fill="#CABA8E"/>
<path d="M375.938 94.0749H289.493V100.21H375.938V94.0749Z" fill="#E8E3D3"/>
<path d="M283.462 100.21L289.493 94.0749V100.21H283.462Z" fill="#E8E3D3"/>
<path d="M381.969 94.0747L375.938 100.21V94.0749L381.969 94.0747Z" fill="#E8E3D3"/>
<rect width="92.4762" height="94.0743" transform="matrix(-1 0 0 1 287.482 0)" fill="#E1CF9E"/>
<path d="M195.005 6.13516H188.974V100.21H195.005V6.13516Z" fill="#CABA8E"/>
<path d="M188.974 6.13516L195.005 0V6.13516H188.974Z" fill="#CABA8E"/>
<path d="M281.451 94.0749H195.006V100.21H281.451V94.0749Z" fill="#D6C596"/>
<path d="M188.975 100.21L195.006 94.0749V100.21H188.975Z" fill="#D6C596"/>
<path d="M287.482 94.0747L281.451 100.21V94.0749L287.482 94.0747Z" fill="#D6C596"/>
<rect width="92.4762" height="94.0743" transform="matrix(-1 0 0 1 192.995 0)" fill="#FFF8E5"/>
<path d="M100.518 6.13516H94.4871V100.21H100.518V6.13516Z" fill="#CABA8E"/>
<path d="M94.4871 6.13516L100.518 0V6.13516H94.4871Z" fill="#CABA8E"/>
<path d="M186.964 94.0749H100.518V100.21H186.964V94.0749Z" fill="#E8E3D3"/>
<path d="M94.4873 100.21L100.518 94.0749V100.21H94.4873Z" fill="#E8E3D3"/>
<path d="M192.995 94.0747L186.964 100.21V94.0749L192.995 94.0747Z" fill="#E8E3D3"/>
<rect width="92.4762" height="94.0743" transform="matrix(-1 0 0 1 98.5075 0)" fill="#E1CF9E"/>
<path d="M6.03113 6.13516H7.43866e-05V100.21H6.03113V6.13516Z" fill="#CABA8E"/>
<path d="M7.43866e-05 6.13516L6.03113 0V6.13516H7.43866e-05Z" fill="#CABA8E"/>
<path d="M92.4765 94.0749H6.0314V100.21H92.4765V94.0749Z" fill="#D6C596"/>
<path d="M0.000274658 100.21L6.0314 94.0749V100.21H0.000274658Z" fill="#D6C596"/>
<path d="M98.5076 94.0747L92.4765 100.21V94.0749L98.5076 94.0747Z" fill="#D6C596"/>
<rect width="92.4762" height="94.0743" transform="matrix(-1 0 0 1 759.917 98.165)" fill="#E1CF9E"/>
<path d="M667.441 104.3H661.41V198.375H667.441V104.3Z" fill="#CABA8E"/>
<path d="M661.41 104.3L667.441 98.165V104.3H661.41Z" fill="#CABA8E"/>
<path d="M753.886 192.239H667.441V198.375H753.886V192.239Z" fill="#D6C596"/>
<path d="M661.41 198.375L667.441 192.239V198.375H661.41Z" fill="#D6C596"/>
<path d="M759.917 192.239L753.886 198.375V192.239L759.917 192.239Z" fill="#D6C596"/>
<rect width="92.4762" height="94.0743" transform="matrix(-1 0 0 1 665.43 98.165)" fill="#FFF8E5"/>
<path d="M572.954 104.3H566.923V198.375H572.954V104.3Z" fill="#CABA8E"/>
<path d="M566.923 104.3L572.954 98.165V104.3H566.923Z" fill="#CABA8E"/>
<path d="M659.399 192.239H572.954V198.375H659.399V192.239Z" fill="#E8E3D3"/>
<path d="M566.923 198.375L572.954 192.239V198.375H566.923Z" fill="#E8E3D3"/>
<path d="M665.43 192.239L659.399 198.375V192.239L665.43 192.239Z" fill="#E8E3D3"/>
<rect width="92.4762" height="94.0743" transform="matrix(-1 0 0 1 570.943 97.1426)" fill="#E1CF9E"/>
<path d="M478.467 103.278H472.436V197.352H478.467V103.278Z" fill="#CABA8E"/>
<path d="M472.436 103.278L478.467 97.1426V103.278H472.436Z" fill="#CABA8E"/>
<path d="M564.912 191.217H478.467V197.352H564.912V191.217Z" fill="#D6C596"/>
<path d="M472.436 197.352L478.467 191.217V197.352H472.436Z" fill="#D6C596"/>
<path d="M570.943 191.217L564.912 197.352V191.217L570.943 191.217Z" fill="#D6C596"/>
<rect width="92.4762" height="94.0743" transform="matrix(-1 0 0 1 476.456 97.1426)" fill="#FFF8E5"/>
<path d="M383.979 103.278H377.948V197.352H383.979V103.278Z" fill="#CABA8E"/>
<path d="M377.948 103.278L383.979 97.1426V103.278H377.948Z" fill="#CABA8E"/>
<path d="M470.425 191.217H383.98V197.352H470.425V191.217Z" fill="#E8E3D3"/>
<path d="M377.949 197.352L383.98 191.217V197.352H377.949Z" fill="#E8E3D3"/>
<path d="M476.456 191.217L470.425 197.352V191.217L476.456 191.217Z" fill="#E8E3D3"/>
<rect width="92.4762" height="94.0743" transform="matrix(-1 0 0 1 381.969 97.1426)" fill="#E1CF9E"/>
<path d="M289.492 103.278H283.461V197.352H289.492V103.278Z" fill="#CABA8E"/>
<path d="M283.461 103.278L289.492 97.1426V103.278H283.461Z" fill="#CABA8E"/>
<path d="M375.938 191.217H289.493V197.352H375.938V191.217Z" fill="#D6C596"/>
<path d="M283.462 197.352L289.493 191.217V197.352H283.462Z" fill="#D6C596"/>
<path d="M381.969 191.217L375.938 197.352V191.217L381.969 191.217Z" fill="#D6C596"/>
<rect width="92.4762" height="94.0743" transform="matrix(-1 0 0 1 287.482 97.1426)" fill="#FFF8E5"/>
<path d="M195.005 103.278H188.974V197.352H195.005V103.278Z" fill="#CABA8E"/>
<path d="M188.974 103.278L195.005 97.1426V103.278H188.974Z" fill="#CABA8E"/>
<path d="M281.451 191.217H195.006V197.352H281.451V191.217Z" fill="#E8E3D3"/>
<path d="M188.975 197.352L195.006 191.217V197.352H188.975Z" fill="#E8E3D3"/>
<path d="M287.482 191.217L281.451 197.352V191.217L287.482 191.217Z" fill="#E8E3D3"/>
<rect width="92.4762" height="94.0743" transform="matrix(-1 0 0 1 192.995 97.1426)" fill="#E1CF9E"/>
<path d="M100.518 103.278H94.4871V197.352H100.518V103.278Z" fill="#CABA8E"/>
<path d="M94.4871 103.278L100.518 97.1426V103.278H94.4871Z" fill="#CABA8E"/>
<path d="M186.964 191.217H100.518V197.352H186.964V191.217Z" fill="#D6C596"/>
<path d="M94.4873 197.352L100.518 191.217V197.352H94.4873Z" fill="#D6C596"/>
<path d="M192.995 191.217L186.964 197.352V191.217L192.995 191.217Z" fill="#D6C596"/>
<rect width="92.4762" height="94.0743" transform="matrix(-1 0 0 1 98.5075 97.1426)" fill="#FFF8E5"/>
<path d="M6.03113 103.278H7.43866e-05V197.352H6.03113V103.278Z" fill="#CABA8E"/>
<path d="M7.43866e-05 103.278L6.03113 97.1426V103.278H7.43866e-05Z" fill="#CABA8E"/>
<path d="M92.4765 191.217H6.0314V197.352H92.4765V191.217Z" fill="#E8E3D3"/>
<path d="M0.000274658 197.352L6.0314 191.217V197.352H0.000274658Z" fill="#E8E3D3"/>
<path d="M98.5076 191.217L92.4765 197.352V191.217L98.5076 191.217Z" fill="#E8E3D3"/>
<rect width="92.4762" height="94.0743" transform="matrix(-1 0 0 1 759.917 194.285)" fill="#FFF8E5"/>
<path d="M667.441 200.42H661.41V294.495H667.441V200.42Z" fill="#CABA8E"/>
<path d="M661.41 200.42L667.441 194.285V200.42H661.41Z" fill="#CABA8E"/>
<path d="M753.886 288.36H667.441V294.495H753.886V288.36Z" fill="#E8E3D3"/>
<path d="M661.41 294.495L667.441 288.36V294.495H661.41Z" fill="#E8E3D3"/>
<path d="M759.917 288.36L753.886 294.495V288.36L759.917 288.36Z" fill="#E8E3D3"/>
<rect width="92.4762" height="94.0743" transform="matrix(-1 0 0 1 665.43 194.285)" fill="#E1CF9E"/>
<path d="M572.954 200.42H566.923V294.495H572.954V200.42Z" fill="#CABA8E"/>
<path d="M566.923 200.42L572.954 194.285V200.42H566.923Z" fill="#CABA8E"/>
<path d="M659.399 288.36H572.954V294.495H659.399V288.36Z" fill="#D6C596"/>
<path d="M566.923 294.495L572.954 288.36V294.495H566.923Z" fill="#D6C596"/>
<path d="M665.43 288.36L659.399 294.495V288.36L665.43 288.36Z" fill="#D6C596"/>
<rect width="92.4762" height="94.0743" transform="matrix(-1 0 0 1 570.943 193.262)" fill="#FFF8E5"/>
<path d="M478.467 199.397H472.436V293.472H478.467V199.397Z" fill="#CABA8E"/>
<path d="M472.436 199.397L478.467 193.262V199.397H472.436Z" fill="#CABA8E"/>
<path d="M564.912 287.338H478.467V293.473H564.912V287.338Z" fill="#E8E3D3"/>
<path d="M472.436 293.473L478.467 287.338V293.473H472.436Z" fill="#E8E3D3"/>
<path d="M570.943 287.337L564.912 293.473V287.338L570.943 287.337Z" fill="#E8E3D3"/>
<rect width="92.4762" height="94.0743" transform="matrix(-1 0 0 1 476.456 193.262)" fill="#E1CF9E"/>
<path d="M383.979 199.397H377.948V293.472H383.979V199.397Z" fill="#CABA8E"/>
<path d="M377.948 199.397L383.979 193.262V199.397H377.948Z" fill="#CABA8E"/>
<path d="M470.425 287.338H383.98V293.473H470.425V287.338Z" fill="#D6C596"/>
<path d="M377.949 293.473L383.98 287.338V293.473H377.949Z" fill="#D6C596"/>
<path d="M476.456 287.337L470.425 293.473V287.338L476.456 287.337Z" fill="#D6C596"/>
<rect width="92.4762" height="94.0743" transform="matrix(-1 0 0 1 381.969 193.262)" fill="#FFF8E5"/>
<path d="M289.492 199.397H283.461V293.472H289.492V199.397Z" fill="#CABA8E"/>
<path d="M283.461 199.397L289.492 193.262V199.397H283.461Z" fill="#CABA8E"/>
<path d="M375.938 287.338H289.493V293.473H375.938V287.338Z" fill="#E8E3D3"/>
<path d="M283.462 293.473L289.493 287.338V293.473H283.462Z" fill="#E8E3D3"/>
<path d="M381.969 287.337L375.938 293.473V287.338L381.969 287.337Z" fill="#E8E3D3"/>
<rect width="92.4762" height="94.0743" transform="matrix(-1 0 0 1 287.482 193.262)" fill="#E1CF9E"/>
<path d="M195.005 199.397H188.974V293.472H195.005V199.397Z" fill="#CABA8E"/>
<path d="M188.974 199.397L195.005 193.262V199.397H188.974Z" fill="#CABA8E"/>
<path d="M281.451 287.338H195.006V293.473H281.451V287.338Z" fill="#D6C596"/>
<path d="M188.975 293.473L195.006 287.338V293.473H188.975Z" fill="#D6C596"/>
<path d="M287.482 287.337L281.451 293.473V287.338L287.482 287.337Z" fill="#D6C596"/>
<rect width="92.4762" height="94.0743" transform="matrix(-1 0 0 1 192.995 193.262)" fill="#FFF8E5"/>
<path d="M100.518 199.397H94.4871V293.472H100.518V199.397Z" fill="#CABA8E"/>
<path d="M94.4871 199.397L100.518 193.262V199.397H94.4871Z" fill="#CABA8E"/>
<path d="M186.964 287.338H100.518V293.473H186.964V287.338Z" fill="#E8E3D3"/>
<path d="M94.4873 293.473L100.518 287.338V293.473H94.4873Z" fill="#E8E3D3"/>
<path d="M192.995 287.337L186.964 293.473V287.338L192.995 287.337Z" fill="#E8E3D3"/>
<rect width="92.4762" height="94.0743" transform="matrix(-1 0 0 1 98.5075 193.262)" fill="#E1CF9E"/>
<path d="M6.03113 199.397H7.43866e-05V293.472H6.03113V199.397Z" fill="#CABA8E"/>
<path d="M7.43866e-05 199.397L6.03113 193.262V199.397H7.43866e-05Z" fill="#CABA8E"/>
<path d="M92.4766 287.338H6.03146V293.473H92.4766V287.338Z" fill="#D6C596"/>
<path d="M0.000335693 293.473L6.03146 287.338V293.473H0.000335693Z" fill="#D6C596"/>
<path d="M98.5076 287.337L92.4766 293.473V287.338L98.5076 287.337Z" fill="#D6C596"/>
<rect width="92.4762" height="94.0743" transform="matrix(-1 0 0 1 759.917 290.405)" fill="#E1CF9E"/>
<path d="M667.441 296.54H661.41V390.614H667.441V296.54Z" fill="#CABA8E"/>
<path d="M661.41 296.54L667.441 290.405V296.54H661.41Z" fill="#CABA8E"/>
<path d="M753.886 384.48H667.441V390.615H753.886V384.48Z" fill="#D6C596"/>
<path d="M661.41 390.615L667.441 384.48V390.615H661.41Z" fill="#D6C596"/>
<path d="M759.917 384.48L753.886 390.615V384.48L759.917 384.48Z" fill="#D6C596"/>
<rect width="92.4762" height="94.0743" transform="matrix(-1 0 0 1 665.43 290.405)" fill="#FFF8E5"/>
<path d="M572.954 296.54H566.923V390.614H572.954V296.54Z" fill="#CABA8E"/>
<path d="M566.923 296.54L572.954 290.405V296.54H566.923Z" fill="#CABA8E"/>
<path d="M659.399 384.48H572.954V390.615H659.399V384.48Z" fill="#E8E3D3"/>
<path d="M566.923 390.615L572.954 384.48V390.615H566.923Z" fill="#E8E3D3"/>
<path d="M665.43 384.48L659.399 390.615V384.48L665.43 384.48Z" fill="#E8E3D3"/>
<rect width="92.4762" height="94.0743" transform="matrix(-1 0 0 1 570.943 289.382)" fill="#E1CF9E"/>
<path d="M478.467 295.517H472.436V389.592H478.467V295.517Z" fill="#CABA8E"/>
<path d="M472.436 295.517L478.467 289.382V295.517H472.436Z" fill="#CABA8E"/>
<path d="M564.912 383.458H478.467V389.593H564.912V383.458Z" fill="#D6C596"/>
<path d="M472.436 389.593L478.467 383.458V389.593H472.436Z" fill="#D6C596"/>
<path d="M570.943 383.458L564.912 389.593V383.458L570.943 383.458Z" fill="#D6C596"/>
<rect width="92.4762" height="94.0743" transform="matrix(-1 0 0 1 476.456 289.382)" fill="#FFF8E5"/>
<path d="M383.979 295.517H377.948V389.592H383.979V295.517Z" fill="#CABA8E"/>
<path d="M377.948 295.517L383.979 289.382V295.517H377.948Z" fill="#CABA8E"/>
<path d="M470.425 383.458H383.98V389.593H470.425V383.458Z" fill="#E8E3D3"/>
<path d="M377.949 389.593L383.98 383.458V389.593H377.949Z" fill="#E8E3D3"/>
<path d="M476.456 383.458L470.425 389.593V383.458L476.456 383.458Z" fill="#E8E3D3"/>
<rect width="92.4762" height="94.0743" transform="matrix(-1 0 0 1 381.969 289.382)" fill="#E1CF9E"/>
<path d="M289.492 295.517H283.461V389.592H289.492V295.517Z" fill="#CABA8E"/>
<path d="M283.461 295.517L289.492 289.382V295.517H283.461Z" fill="#CABA8E"/>
<path d="M375.938 383.458H289.493V389.593H375.938V383.458Z" fill="#D6C596"/>
<path d="M283.462 389.593L289.493 383.458V389.593H283.462Z" fill="#D6C596"/>
<path d="M381.969 383.458L375.938 389.593V383.458L381.969 383.458Z" fill="#D6C596"/>
<rect width="92.4762" height="94.0743" transform="matrix(-1 0 0 1 287.482 289.382)" fill="#FFF8E5"/>
<path d="M195.005 295.517H188.974V389.592H195.005V295.517Z" fill="#CABA8E"/>
<path d="M188.974 295.517L195.005 289.382V295.517H188.974Z" fill="#CABA8E"/>
<path d="M281.451 383.458H195.006V389.593H281.451V383.458Z" fill="#E8E3D3"/>
<path d="M188.975 389.593L195.006 383.458V389.593H188.975Z" fill="#E8E3D3"/>
<path d="M287.482 383.458L281.451 389.593V383.458L287.482 383.458Z" fill="#E8E3D3"/>
<rect width="92.4762" height="94.0743" transform="matrix(-1 0 0 1 192.995 289.382)" fill="#E1CF9E"/>
<path d="M100.518 295.517H94.487V389.592H100.518V295.517Z" fill="#CABA8E"/>
<path d="M94.487 295.517L100.518 289.382V295.517H94.487Z" fill="#CABA8E"/>
<path d="M186.964 383.458H100.518V389.593H186.964V383.458Z" fill="#D6C596"/>
<path d="M94.4873 389.593L100.518 383.458V389.593H94.4873Z" fill="#D6C596"/>
<path d="M192.995 383.458L186.964 389.593V383.458L192.995 383.458Z" fill="#D6C596"/>
<rect width="92.4762" height="94.0743" transform="matrix(-1 0 0 1 98.5076 289.382)" fill="#FFF8E5"/>
<path d="M6.03101 295.517H-4.76837e-05V389.592H6.03101V295.517Z" fill="#CABA8E"/>
<path d="M-4.76837e-05 295.517L6.03101 289.382V295.517H-4.76837e-05Z" fill="#CABA8E"/>
<path d="M92.4765 383.458H6.0314V389.593H92.4765V383.458Z" fill="#E8E3D3"/>
<path d="M0.000274658 389.593L6.0314 383.458V389.593H0.000274658Z" fill="#E8E3D3"/>
<path d="M98.5076 383.458L92.4765 389.593V383.458L98.5076 383.458Z" fill="#E8E3D3"/>
<rect width="92.4762" height="94.0743" transform="matrix(-1 0 0 1 759.917 386.525)" fill="#FFF8E5"/>
<path d="M667.441 392.66H661.41V486.734H667.441V392.66Z" fill="#CABA8E"/>
<path d="M661.41 392.66L667.441 386.525V392.66H661.41Z" fill="#CABA8E"/>
<path d="M753.886 480.6H667.441V486.736H753.886V480.6Z" fill="#E8E3D3"/>
<path d="M661.41 486.736L667.441 480.6V486.736H661.41Z" fill="#E8E3D3"/>
<path d="M759.918 480.6L753.886 486.736V480.6L759.918 480.6Z" fill="#E8E3D3"/>
<rect width="92.4762" height="94.0743" transform="matrix(-1 0 0 1 665.43 386.525)" fill="#E1CF9E"/>
<path d="M572.954 392.66H566.923V486.734H572.954V392.66Z" fill="#CABA8E"/>
<path d="M566.923 392.66L572.954 386.525V392.66H566.923Z" fill="#CABA8E"/>
<path d="M659.399 480.6H572.954V486.736H659.399V480.6Z" fill="#D6C596"/>
<path d="M566.923 486.736L572.954 480.6V486.736H566.923Z" fill="#D6C596"/>
<path d="M665.43 480.6L659.399 486.736V480.6L665.43 480.6Z" fill="#D6C596"/>
<rect width="92.4762" height="94.0743" transform="matrix(-1 0 0 1 570.943 385.503)" fill="#FFF8E5"/>
<path d="M478.467 391.638H472.436V485.712H478.467V391.638Z" fill="#CABA8E"/>
<path d="M472.436 391.638L478.467 385.503V391.638H472.436Z" fill="#CABA8E"/>
<path d="M564.912 479.578H478.467V485.714H564.912V479.578Z" fill="#E8E3D3"/>
<path d="M472.436 485.714L478.467 479.578V485.714H472.436Z" fill="#E8E3D3"/>
<path d="M570.943 479.578L564.912 485.714V479.578L570.943 479.578Z" fill="#E8E3D3"/>
<rect width="92.4762" height="94.0743" transform="matrix(-1 0 0 1 476.456 385.503)" fill="#E1CF9E"/>
<path d="M383.979 391.638H377.948V485.712H383.979V391.638Z" fill="#CABA8E"/>
<path d="M377.948 391.638L383.979 385.503V391.638H377.948Z" fill="#CABA8E"/>
<path d="M470.425 479.578H383.98V485.714H470.425V479.578Z" fill="#D6C596"/>
<path d="M377.949 485.714L383.98 479.578V485.714H377.949Z" fill="#D6C596"/>
<path d="M476.456 479.578L470.425 485.714V479.578L476.456 479.578Z" fill="#D6C596"/>
<rect width="92.4762" height="94.0743" transform="matrix(-1 0 0 1 381.969 385.503)" fill="#FFF8E5"/>
<path d="M289.492 391.638H283.461V485.712H289.492V391.638Z" fill="#CABA8E"/>
<path d="M283.461 391.638L289.492 385.503V391.638H283.461Z" fill="#CABA8E"/>
<path d="M375.938 479.578H289.493V485.714H375.938V479.578Z" fill="#E8E3D3"/>
<path d="M283.462 485.714L289.493 479.578V485.714H283.462Z" fill="#E8E3D3"/>
<path d="M381.969 479.578L375.938 485.714V479.578L381.969 479.578Z" fill="#E8E3D3"/>
<rect width="92.4762" height="94.0743" transform="matrix(-1 0 0 1 287.482 385.503)" fill="#E1CF9E"/>
<path d="M195.005 391.638H188.974V485.712H195.005V391.638Z" fill="#CABA8E"/>
<path d="M188.974 391.638L195.005 385.503V391.638H188.974Z" fill="#CABA8E"/>
<path d="M281.451 479.578H195.006V485.714H281.451V479.578Z" fill="#D6C596"/>
<path d="M188.975 485.714L195.006 479.578V485.714H188.975Z" fill="#D6C596"/>
<path d="M287.482 479.578L281.451 485.714V479.578L287.482 479.578Z" fill="#D6C596"/>
<rect width="92.4762" height="94.0743" transform="matrix(-1 0 0 1 192.995 385.503)" fill="#FFF8E5"/>
<path d="M100.518 391.638H94.4869V485.712H100.518V391.638Z" fill="#CABA8E"/>
<path d="M94.4869 391.638L100.518 385.503V391.638H94.4869Z" fill="#CABA8E"/>
<path d="M186.964 479.578H100.518V485.714H186.964V479.578Z" fill="#E8E3D3"/>
<path d="M94.4873 485.714L100.518 479.578V485.714H94.4873Z" fill="#E8E3D3"/>
<path d="M192.995 479.578L186.964 485.714V479.578L192.995 479.578Z" fill="#E8E3D3"/>
<rect width="92.4762" height="94.0743" transform="matrix(-1 0 0 1 98.5076 385.503)" fill="#E1CF9E"/>
<path d="M6.03094 391.638H-0.000108719V485.712H6.03094V391.638Z" fill="#CABA8E"/>
<path d="M-0.000108719 391.638L6.03094 385.503V391.638H-0.000108719Z" fill="#CABA8E"/>
<path d="M92.4765 479.578H6.0314V485.714H92.4765V479.578Z" fill="#D6C596"/>
<path d="M0.000274658 485.714L6.0314 479.578V485.714H0.000274658Z" fill="#D6C596"/>
<path d="M98.5076 479.578L92.4765 485.714V479.578L98.5076 479.578Z" fill="#D6C596"/>
<rect width="92.4762" height="94.0743" transform="matrix(-1 0 0 1 759.917 482.645)" fill="#E1CF9E"/>
<path d="M667.441 488.78H661.41V582.854H667.441V488.78Z" fill="#CABA8E"/>
<path d="M661.41 488.78L667.441 482.645V488.78H661.41Z" fill="#CABA8E"/>
<path d="M753.886 576.719H667.441V582.855H753.886V576.719Z" fill="#D6C596"/>
<path d="M661.41 582.855L667.441 576.719V582.855H661.41Z" fill="#D6C596"/>
<path d="M759.917 576.719L753.886 582.855V576.719L759.917 576.719Z" fill="#D6C596"/>
<rect width="92.4762" height="94.0743" transform="matrix(-1 0 0 1 665.43 482.645)" fill="#FFF8E5"/>
<path d="M572.954 488.78H566.923V582.854H572.954V488.78Z" fill="#CABA8E"/>
<path d="M566.923 488.78L572.954 482.645V488.78H566.923Z" fill="#CABA8E"/>
<path d="M659.399 576.719H572.954V582.855H659.399V576.719Z" fill="#E8E3D3"/>
<path d="M566.923 582.855L572.954 576.719V582.855H566.923Z" fill="#E8E3D3"/>
<path d="M665.43 576.719L659.399 582.855V576.719L665.43 576.719Z" fill="#E8E3D3"/>
<rect width="92.4762" height="94.0743" transform="matrix(-1 0 0 1 570.943 481.622)" fill="#E1CF9E"/>
<path d="M478.467 487.757H472.436V581.832H478.467V487.757Z" fill="#CABA8E"/>
<path d="M472.436 487.757L478.467 481.622V487.757H472.436Z" fill="#CABA8E"/>
<path d="M564.912 575.697H478.467V581.832H564.912V575.697Z" fill="#D6C596"/>
<path d="M472.436 581.832L478.467 575.697V581.832H472.436Z" fill="#D6C596"/>
<path d="M570.943 575.697L564.912 581.832V575.697L570.943 575.697Z" fill="#D6C596"/>
<rect width="92.4762" height="94.0743" transform="matrix(-1 0 0 1 476.456 481.622)" fill="#FFF8E5"/>
<path d="M383.979 487.757H377.948V581.832H383.979V487.757Z" fill="#CABA8E"/>
<path d="M377.948 487.757L383.979 481.622V487.757H377.948Z" fill="#CABA8E"/>
<path d="M470.425 575.697H383.98V581.832H470.425V575.697Z" fill="#E8E3D3"/>
<path d="M377.949 581.832L383.98 575.697V581.832H377.949Z" fill="#E8E3D3"/>
<path d="M476.456 575.697L470.425 581.832V575.697L476.456 575.697Z" fill="#E8E3D3"/>
<rect width="92.4762" height="94.0743" transform="matrix(-1 0 0 1 381.969 481.622)" fill="#E1CF9E"/>
<path d="M289.492 487.757H283.461V581.832H289.492V487.757Z" fill="#CABA8E"/>
<path d="M283.461 487.757L289.492 481.622V487.757H283.461Z" fill="#CABA8E"/>
<path d="M375.938 575.697H289.493V581.832H375.938V575.697Z" fill="#D6C596"/>
<path d="M283.462 581.832L289.493 575.697V581.832H283.462Z" fill="#D6C596"/>
<path d="M381.969 575.697L375.938 581.832V575.697L381.969 575.697Z" fill="#D6C596"/>
<rect width="92.4762" height="94.0743" transform="matrix(-1 0 0 1 287.482 481.622)" fill="#FFF8E5"/>
<path d="M195.005 487.757H188.974V581.832H195.005V487.757Z" fill="#CABA8E"/>
<path d="M188.974 487.757L195.005 481.622V487.757H188.974Z" fill="#CABA8E"/>
<path d="M281.451 575.697H195.006V581.832H281.451V575.697Z" fill="#E8E3D3"/>
<path d="M188.975 581.832L195.006 575.697V581.832H188.975Z" fill="#E8E3D3"/>
<path d="M287.482 575.697L281.451 581.832V575.697L287.482 575.697Z" fill="#E8E3D3"/>
<rect width="92.4762" height="94.0743" transform="matrix(-1 0 0 1 192.995 481.622)" fill="#E1CF9E"/>
<path d="M100.518 487.757H94.487V581.832H100.518V487.757Z" fill="#CABA8E"/>
<path d="M94.487 487.757L100.518 481.622V487.757H94.487Z" fill="#CABA8E"/>
<path d="M186.964 575.697H100.518V581.832H186.964V575.697Z" fill="#D6C596"/>
<path d="M94.4873 581.832L100.518 575.697V581.832H94.4873Z" fill="#D6C596"/>
<path d="M192.995 575.697L186.964 581.832V575.697L192.995 575.697Z" fill="#D6C596"/>
<rect width="92.4762" height="94.0743" transform="matrix(-1 0 0 1 98.5075 481.622)" fill="#FFF8E5"/>
<path d="M6.03107 487.757H1.33514e-05V581.832H6.03107V487.757Z" fill="#CABA8E"/>
<path d="M1.33514e-05 487.757L6.03107 481.622V487.757H1.33514e-05Z" fill="#CABA8E"/>
<path d="M92.4765 575.697H6.0314V581.832H92.4765V575.697Z" fill="#E8E3D3"/>
<path d="M0.000274658 581.832L6.0314 575.697V581.832H0.000274658Z" fill="#E8E3D3"/>
<path d="M98.5076 575.697L92.4765 581.832V575.697L98.5076 575.697Z" fill="#E8E3D3"/>
<rect width="92.4762" height="94.0743" transform="matrix(-1 0 0 1 759.917 578.763)" fill="#FFF8E5"/>
<path d="M667.441 584.898H661.41V678.973H667.441V584.898Z" fill="#CABA8E"/>
<path d="M661.41 584.898L667.441 578.763V584.898H661.41Z" fill="#CABA8E"/>
<path d="M753.886 672.839H667.441V678.974H753.886V672.839Z" fill="#E8E3D3"/>
<path d="M661.41 678.974L667.441 672.839V678.974H661.41Z" fill="#E8E3D3"/>
<path d="M759.917 672.838L753.886 678.974V672.839L759.917 672.838Z" fill="#E8E3D3"/>
<rect width="92.4762" height="94.0743" transform="matrix(-1 0 0 1 665.43 578.763)" fill="#E1CF9E"/>
<path d="M572.954 584.898H566.923V678.973H572.954V584.898Z" fill="#CABA8E"/>
<path d="M566.923 584.898L572.954 578.763V584.898H566.923Z" fill="#CABA8E"/>
<path d="M659.399 672.839H572.954V678.974H659.399V672.839Z" fill="#D6C596"/>
<path d="M566.923 678.974L572.954 672.839V678.974H566.923Z" fill="#D6C596"/>
<path d="M665.431 672.838L659.399 678.974V672.839L665.431 672.838Z" fill="#D6C596"/>
<rect width="92.4762" height="94.0743" transform="matrix(-1 0 0 1 570.943 577.742)" fill="#FFF8E5"/>
<path d="M478.467 583.877H472.436V677.952H478.467V583.877Z" fill="#CABA8E"/>
<path d="M472.436 583.877L478.467 577.742V583.877H472.436Z" fill="#CABA8E"/>
<path d="M564.912 671.818H478.467V677.953H564.912V671.818Z" fill="#E8E3D3"/>
<path d="M472.436 677.953L478.467 671.818V677.953H472.436Z" fill="#E8E3D3"/>
<path d="M570.943 671.817L564.912 677.953V671.818L570.943 671.817Z" fill="#E8E3D3"/>
<rect width="92.4762" height="94.0743" transform="matrix(-1 0 0 1 476.456 577.742)" fill="#E1CF9E"/>
<path d="M383.979 583.877H377.948V677.952H383.979V583.877Z" fill="#CABA8E"/>
<path d="M377.948 583.877L383.979 577.742V583.877H377.948Z" fill="#CABA8E"/>
<path d="M470.425 671.818H383.98V677.953H470.425V671.818Z" fill="#D6C596"/>
<path d="M377.949 677.953L383.98 671.818V677.953H377.949Z" fill="#D6C596"/>
<path d="M476.456 671.817L470.425 677.953V671.818L476.456 671.817Z" fill="#D6C596"/>
<rect width="92.4762" height="94.0743" transform="matrix(-1 0 0 1 381.969 577.742)" fill="#FFF8E5"/>
<path d="M289.492 583.877H283.461V677.952H289.492V583.877Z" fill="#CABA8E"/>
<path d="M283.461 583.877L289.492 577.742V583.877H283.461Z" fill="#CABA8E"/>
<path d="M375.938 671.818H289.493V677.953H375.938V671.818Z" fill="#E8E3D3"/>
<path d="M283.462 677.953L289.493 671.818V677.953H283.462Z" fill="#E8E3D3"/>
<path d="M381.969 671.817L375.938 677.953V671.818L381.969 671.817Z" fill="#E8E3D3"/>
<rect width="92.4762" height="94.0743" transform="matrix(-1 0 0 1 287.482 577.742)" fill="#E1CF9E"/>
<path d="M195.005 583.877H188.974V677.952H195.005V583.877Z" fill="#CABA8E"/>
<path d="M188.974 583.877L195.005 577.742V583.877H188.974Z" fill="#CABA8E"/>
<path d="M281.451 671.818H195.006V677.953H281.451V671.818Z" fill="#D6C596"/>
<path d="M188.975 677.953L195.006 671.818V677.953H188.975Z" fill="#D6C596"/>
<path d="M287.482 671.817L281.451 677.953V671.818L287.482 671.817Z" fill="#D6C596"/>
<rect width="92.4762" height="94.0743" transform="matrix(-1 0 0 1 192.995 577.742)" fill="#FFF8E5"/>
<path d="M100.518 583.877H94.4871V677.952H100.518V583.877Z" fill="#CABA8E"/>
<path d="M94.4871 583.877L100.518 577.742V583.877H94.4871Z" fill="#CABA8E"/>
<path d="M186.964 671.818H100.518V677.953H186.964V671.818Z" fill="#E8E3D3"/>
<path d="M94.4873 677.953L100.518 671.818V677.953H94.4873Z" fill="#E8E3D3"/>
<path d="M192.995 671.817L186.964 677.953V671.818L192.995 671.817Z" fill="#E8E3D3"/>
<rect width="92.4762" height="94.0743" transform="matrix(-1 0 0 1 98.5075 577.742)" fill="#E1CF9E"/>
<path d="M6.03113 583.877H7.43866e-05V677.952H6.03113V583.877Z" fill="#CABA8E"/>
<path d="M7.43866e-05 583.877L6.03113 577.742V583.877H7.43866e-05Z" fill="#CABA8E"/>
<path d="M92.4765 671.818H6.0314V677.953H92.4765V671.818Z" fill="#D6C596"/>
<path d="M0.000274658 677.953L6.0314 671.818V677.953H0.000274658Z" fill="#D6C596"/>
<path d="M98.5076 671.817L92.4765 677.953V671.818L98.5076 671.817Z" fill="#D6C596"/>
<rect width="92.4762" height="94.0743" transform="matrix(-1 0 0 1 759.917 674.884)" fill="#E1CF9E"/>
<path d="M667.441 681.019H661.41V775.093H667.441V681.019Z" fill="#CABA8E"/>
<path d="M661.41 681.019L667.441 674.884V681.019H661.41Z" fill="#CABA8E"/>
<path d="M661.41 775.093L667.441 769.093V775.093L661.41 775.093Z" fill="#D6C596"/>
<path d="M753.885 768.958H667.44L667.441 775.093L753.885 775.094V768.958Z" fill="#D6C596"/>
<path d="M661.41 775.093L667.44 768.958L667.441 775.093L661.41 775.093Z" fill="#D6C596"/>
<path d="M759.916 768.958L753.885 775.094V768.958L759.916 768.958Z" fill="#D6C596"/>
<rect width="92.4762" height="94.0743" transform="matrix(-1 0 0 1 665.43 674.884)" fill="#FFF8E5"/>
<path d="M572.954 681.019H566.923V775.094H572.954V681.019Z" fill="#CABA8E"/>
<path d="M566.923 681.019L572.954 674.884V681.019H566.923Z" fill="#CABA8E"/>
<path d="M659.399 768.959H572.954V775.094H659.399V768.959Z" fill="#E8E3D3"/>
<path d="M566.923 775.094L572.954 768.959V775.094H566.923Z" fill="#E8E3D3"/>
<path d="M665.43 768.958L659.399 775.094V768.959L665.43 768.958Z" fill="#E8E3D3"/>
<rect width="92.4762" height="94.0743" transform="matrix(-1 0 0 1 570.943 673.862)" fill="#E1CF9E"/>
<path d="M479.472 679.997H473.441V774.072H479.472V679.997Z" fill="#CABA8E"/>
<path d="M473.441 679.997L479.472 673.862V679.997H473.441Z" fill="#CABA8E"/>
<path d="M565.917 767.938H479.472V774.073H565.917V767.938Z" fill="#D6C596"/>
<path d="M473.441 774.073L479.472 767.938V774.073H473.441Z" fill="#D6C596"/>
<path d="M571.949 767.938L565.917 774.073V767.938L571.949 767.938Z" fill="#D6C596"/>
<rect width="92.4762" height="94.0743" transform="matrix(-1 0 0 1 476.456 673.862)" fill="#FFF8E5"/>
<path d="M383.979 679.997H377.948V774.072H383.979V679.997Z" fill="#CABA8E"/>
<path d="M377.948 679.997L383.979 673.862V679.997H377.948Z" fill="#CABA8E"/>
<path d="M470.425 767.938H383.98V774.073H470.425V767.938Z" fill="#E8E3D3"/>
<path d="M377.949 774.073L383.98 767.938V774.073H377.949Z" fill="#E8E3D3"/>
<path d="M476.456 767.938L470.425 774.073V767.938L476.456 767.938Z" fill="#E8E3D3"/>
<rect width="92.4762" height="94.0743" transform="matrix(-1 0 0 1 381.969 673.862)" fill="#E1CF9E"/>
<path d="M289.492 679.997H283.461V774.072H289.492V679.997Z" fill="#CABA8E"/>
<path d="M283.461 679.997L289.492 673.862V679.997H283.461Z" fill="#CABA8E"/>
<path d="M375.938 767.938H289.493V774.073H375.938V767.938Z" fill="#D6C596"/>
<path d="M283.462 774.073L289.493 767.938V774.073H283.462Z" fill="#D6C596"/>
<path d="M381.969 767.938L375.938 774.073V767.938L381.969 767.938Z" fill="#D6C596"/>
<rect width="92.4762" height="94.0743" transform="matrix(-1 0 0 1 287.482 673.862)" fill="#FFF8E5"/>
<path d="M195.005 679.997H188.974V774.072H195.005V679.997Z" fill="#CABA8E"/>
<path d="M188.974 679.997L195.005 673.862V679.997H188.974Z" fill="#CABA8E"/>
<path d="M281.451 767.938H195.006V774.073H281.451V767.938Z" fill="#E8E3D3"/>
<path d="M188.975 774.073L195.006 767.938V774.073H188.975Z" fill="#E8E3D3"/>
<path d="M287.482 767.938L281.451 774.073V767.938L287.482 767.938Z" fill="#E8E3D3"/>
<rect width="92.4762" height="94.0743" transform="matrix(-1 0 0 1 192.995 673.862)" fill="#E1CF9E"/>
<path d="M100.518 679.997H94.487V774.072H100.518V679.997Z" fill="#CABA8E"/>
<path d="M94.487 679.997L100.518 673.862V679.997H94.487Z" fill="#CABA8E"/>
<path d="M186.964 767.938H100.518V774.073H186.964V767.938Z" fill="#D6C596"/>
<path d="M94.4873 774.073L100.518 767.938V774.073H94.4873Z" fill="#D6C596"/>
<path d="M192.995 767.938L186.964 774.073V767.938L192.995 767.938Z" fill="#D6C596"/>
<rect width="92.4762" height="94.0743" transform="matrix(-1 0 0 1 98.5075 673.862)" fill="#FFF8E5"/>
<path d="M6.03101 679.997H-4.76837e-05V774.072H6.03101V679.997Z" fill="#CABA8E"/>
<path d="M-4.76837e-05 679.997L6.03101 673.862V679.997H-4.76837e-05Z" fill="#CABA8E"/>
<path d="M92.4765 767.938H6.0314V774.073H92.4765V767.938Z" fill="#E8E3D3"/>
<path d="M0.000274658 774.073L6.0314 767.938V774.073H0.000274658Z" fill="#E8E3D3"/>
<path d="M98.5076 767.938L92.4765 774.073V767.938L98.5076 767.938Z" fill="#E8E3D3"/>
</svg>
