<svg width="411" height="199" viewBox="0 0 411 199" fill="none" xmlns="http://www.w3.org/2000/svg">
<g filter="url(#filter0_d_2535_5)">
<ellipse cx="85.354" cy="81.6193" rx="72.5837" ry="70.6193" fill="#6C6868"/>
<rect x="85.3541" y="11" width="193.23" height="141" fill="#6C6868"/>
<path d="M279.074 11L393.325 152H164.823L279.074 11Z" fill="#6C6868"/>
<ellipse cx="77.5071" cy="74" rx="72.5837" ry="74" fill="#A6A6A6"/>
<rect x="77.5072" width="193.23" height="148" fill="#A6A6A6"/>
<path d="M271.227 0L385.478 147.75H156.976L271.227 0Z" fill="#A6A6A6"/>
<g filter="url(#filter1_d_2535_5)">
<path d="M319.259 45.9284C312.949 36.9046 326.598 26.3645 338.405 28.5853L319.259 45.9284Z" fill="white" stroke="white"/>
<path d="M232.709 123.972C232.296 126.28 233.613 141.719 233.613 149.98H214.93C210.688 132.55 209.235 135.947 210.372 119.154C210.372 119.154 233.121 121.663 232.709 123.972Z" fill="white"/>
<path d="M210.372 116.264L233.613 119.154C233.767 108.564 235.838 97.9572 235.838 95.0667C235.838 92.1763 217.21 84.4683 217.21 84.4683C212.262 95.5134 211.209 102.742 210.372 116.264Z" fill="white"/>
<path d="M236.75 91.6945L218.577 81.0961C222.948 70.147 228.719 63.5407 235.444 54.6L246.323 70.0159C242.223 77.3979 239.8 82.1861 236.75 91.6945Z" fill="white"/>
<path d="M248.146 67.6071L237.661 52.1912C244.322 44.5856 245.146 40.7161 254.072 36.2936L261.822 53.1547C256.093 57.4068 253.091 60.5247 248.146 67.6071Z" fill="white"/>
<path d="M278.232 44.965C273.119 45.782 270.939 48.3372 265.013 50.746C261.394 46.2416 260.196 40.7982 258.237 34.3666C266.143 30.7953 271.035 28.3113 279.144 27.6221L278.232 44.965Z" fill="white"/>
<path d="M281.485 27.6221V43.5198L294.187 40.1475C293.663 33.5864 295.044 29.8916 298.828 23.2864C292.063 23.2864 288.25 27.6221 281.485 27.6221Z" fill="white"/>
<path d="M232.709 123.972C232.296 126.28 233.613 141.719 233.613 149.98H214.93C210.688 132.55 209.235 135.947 210.372 119.154C210.372 119.154 233.121 121.663 232.709 123.972Z" stroke="white"/>
<path d="M210.372 116.264L233.613 119.154C233.767 108.564 235.838 97.9572 235.838 95.0667C235.838 92.1763 217.21 84.4683 217.21 84.4683C212.262 95.5134 211.209 102.742 210.372 116.264Z" stroke="white"/>
<path d="M236.75 91.6945L218.577 81.0961C222.948 70.147 228.719 63.5407 235.444 54.6L246.323 70.0159C242.223 77.3979 239.8 82.1861 236.75 91.6945Z" stroke="white"/>
<path d="M248.146 67.6071L237.661 52.1912C244.322 44.5856 245.146 40.7161 254.072 36.2936L261.822 53.1547C256.093 57.4068 253.091 60.5247 248.146 67.6071Z" stroke="white"/>
<path d="M278.232 44.965C273.119 45.782 270.939 48.3372 265.013 50.746C261.394 46.2416 260.196 40.7982 258.237 34.3666C266.143 30.7953 271.035 28.3113 279.144 27.6221L278.232 44.965Z" stroke="white"/>
<path d="M281.485 27.6221V43.5198L294.187 40.1475C293.663 33.5864 295.044 29.8916 298.828 23.2864C292.063 23.2864 288.25 27.6221 281.485 27.6221Z" stroke="white"/>
<path d="M237.138 145.956C244.887 140.175 211.222 59.899 297.834 43.0379C297.784 30.3635 303.14 24.6854 320.171 16.5417C314.492 29.8287 312.877 43.0379 318.803 49.3006C324.729 55.5633 350.713 110.964 350.713 110.964C350.713 110.964 350.713 112.409 350.713 124.453C350.713 136.497 342.042 137.516 323.817 130.716C324.816 125.302 324.1 122.362 321.538 117.227C291.88 106.633 280.998 98.612 285.07 75.7967C278.629 99.8069 280.169 97.0372 318.803 143.945L237.138 145.956Z" fill="white" stroke="white"/>
<path d="M308.139 60.5222L322.46 75.3601C312.075 77.5799 308.459 75.1342 308.139 60.5222Z" fill="white" stroke="white"/>
<path d="M322.309 41.8471C316.111 33.296 329.519 23.3081 341.116 25.4125L322.309 41.8471Z" fill="#818181" fill-opacity="0.63"/>
<path d="M237.293 115.802C236.887 117.99 238.181 132.62 238.181 140.448H219.829C215.662 123.932 214.235 127.15 215.352 111.237C215.352 111.237 237.698 113.615 237.293 115.802Z" fill="#818181" fill-opacity="0.63"/>
<path d="M215.352 108.498L238.181 111.237C238.332 101.202 240.366 91.1506 240.366 88.4116C240.366 85.6725 222.068 78.3683 222.068 78.3683C217.208 88.8348 216.173 95.6847 215.352 108.498Z" fill="#818181" fill-opacity="0.63"/>
<path d="M241.262 85.216L223.412 75.1727C227.705 64.7972 233.374 58.5368 239.979 50.0645L250.665 64.6729C246.638 71.6682 244.258 76.2056 241.262 85.216Z" fill="#818181" fill-opacity="0.63"/>
<path d="M252.456 62.3903L242.158 47.7819C248.7 40.5746 249.509 36.9079 258.277 32.717L265.89 48.6949C260.263 52.7242 257.314 55.6789 252.456 62.3903Z" fill="#818181" fill-opacity="0.63"/>
<path d="M282.01 40.9342C276.987 41.7084 274.845 44.1298 269.024 46.4124C265.469 42.1439 264.293 36.9857 262.368 30.8909C270.134 27.5067 274.94 25.1528 282.905 24.4997L282.01 40.9342Z" fill="#818181" fill-opacity="0.63"/>
<path d="M285.205 24.4997V39.5647L297.682 36.3691C297.167 30.1516 298.523 26.6504 302.241 20.3911C295.596 20.3911 291.85 24.4997 285.205 24.4997Z" fill="#818181" fill-opacity="0.63"/>
<path d="M241.643 136.636C249.255 131.157 216.186 55.0862 301.264 39.1082C301.215 27.0978 306.476 21.7171 323.205 14C317.627 26.5909 316.04 39.1082 321.861 45.0429C327.682 50.9776 353.206 103.477 353.206 103.477C353.206 103.477 353.206 104.846 353.206 116.259C353.206 127.672 344.688 128.637 326.787 122.194C327.768 117.063 327.064 114.277 324.548 109.411C295.415 99.3726 284.726 91.7713 288.726 70.1511C282.4 92.9036 283.912 90.279 321.861 134.729L241.643 136.636Z" fill="#818181" fill-opacity="0.63"/>
<path d="M311.386 55.6765L325.454 69.7372C315.252 71.8407 311.701 69.5231 311.386 55.6765Z" fill="white"/>
</g>
<path d="M16.7221 104V38.5455H44.9749C49.8329 38.5455 54.0836 39.5043 57.7271 41.4219C61.3705 43.3395 64.2043 46.0348 66.2285 49.5078C68.2526 52.9808 69.2647 57.0398 69.2647 61.6847C69.2647 66.3722 68.2207 70.4311 66.1326 73.8615C64.0658 77.2919 61.1575 79.9339 57.4075 81.7876C53.6788 83.6413 49.3215 84.5682 44.3357 84.5682H27.4607V70.7614H40.7562C42.8443 70.7614 44.6234 70.3991 46.0935 69.6747C47.585 68.929 48.7249 67.8743 49.5133 66.5107C50.3229 65.147 50.7278 63.5384 50.7278 61.6847C50.7278 59.8097 50.3229 58.2116 49.5133 56.8906C48.7249 55.5483 47.585 54.5256 46.0935 53.8224C44.6234 53.098 42.8443 52.7358 40.7562 52.7358H34.492V104H16.7221ZM143.444 54.9091L126.953 104H106.498L90.0069 54.9091H108.544L116.47 87.3807H116.981L124.907 54.9091H143.444ZM166.136 104V38.5455H194.389C199.247 38.5455 203.498 39.5043 207.141 41.4219C210.785 43.3395 213.618 46.0348 215.643 49.5078C217.667 52.9808 218.679 57.0398 218.679 61.6847C218.679 66.3722 217.635 70.4311 215.547 73.8615C213.48 77.2919 210.572 79.9339 206.822 81.7876C203.093 83.6413 198.736 84.5682 193.75 84.5682H176.875V70.7614H190.17C192.258 70.7614 194.037 70.3991 195.508 69.6747C196.999 68.929 198.139 67.8743 198.927 66.5107C199.737 65.147 200.142 63.5384 200.142 61.6847C200.142 59.8097 199.737 58.2116 198.927 56.8906C198.139 55.5483 196.999 54.5256 195.508 53.8224C194.037 53.098 192.258 52.7358 190.17 52.7358H183.906V104H166.136Z" fill="#6C6868"/>
<path d="M18.6838 100V34.5455H46.9366C51.7946 34.5455 56.0453 35.5043 59.6887 37.4219C63.3322 39.3395 66.166 42.0348 68.1902 45.5078C70.2143 48.9808 71.2264 53.0398 71.2264 57.6847C71.2264 62.3722 70.1823 66.4311 68.0943 69.8615C66.0275 73.2919 63.1191 75.9339 59.3691 77.7876C55.6404 79.6413 51.2832 80.5682 46.2974 80.5682H29.4224V66.7614H42.7179C44.8059 66.7614 46.585 66.3991 48.0552 65.6747C49.5467 64.929 50.6866 63.8743 51.475 62.5107C52.2846 61.147 52.6894 59.5384 52.6894 57.6847C52.6894 55.8097 52.2846 54.2116 51.475 52.8906C50.6866 51.5483 49.5467 50.5256 48.0552 49.8224C46.585 49.098 44.8059 48.7358 42.7179 48.7358H36.4536V100H18.6838ZM145.406 50.9091L128.915 100H108.46L91.9686 50.9091H110.505L118.432 83.3807H118.943L126.869 50.9091H145.406ZM168.098 100V34.5455H196.351C201.209 34.5455 205.459 35.5043 209.103 37.4219C212.746 39.3395 215.58 42.0348 217.604 45.5078C219.628 48.9808 220.64 53.0398 220.64 57.6847C220.64 62.3722 219.596 66.4311 217.508 69.8615C215.442 73.2919 212.533 75.9339 208.783 77.7876C205.055 79.6413 200.697 80.5682 195.711 80.5682H178.836V66.7614H192.132C194.22 66.7614 195.999 66.3991 197.469 65.6747C198.961 64.929 200.101 63.8743 200.889 62.5107C201.699 61.147 202.104 59.5384 202.104 57.6847C202.104 55.8097 201.699 54.2116 200.889 52.8906C200.101 51.5483 198.961 50.5256 197.469 49.8224C195.999 49.098 194.22 48.7358 192.132 48.7358H185.868V100H168.098Z" fill="white"/>
</g>
<defs>
<filter id="filter0_d_2535_5" x="0.923401" y="0" width="396.402" height="160.239" filterUnits="userSpaceOnUse" color-interpolation-filters="sRGB">
<feFlood flood-opacity="0" result="BackgroundImageFix"/>
<feColorMatrix in="SourceAlpha" type="matrix" values="0 0 0 0 0 0 0 0 0 0 0 0 0 0 0 0 0 0 127 0" result="hardAlpha"/>
<feOffset dy="4"/>
<feGaussianBlur stdDeviation="2"/>
<feComposite in2="hardAlpha" operator="out"/>
<feColorMatrix type="matrix" values="0 0 0 0 0 0 0 0 0 0 0 0 0 0 0 0 0 0 0.25 0"/>
<feBlend mode="normal" in2="BackgroundImageFix" result="effect1_dropShadow_2535_5"/>
<feBlend mode="normal" in="SourceGraphic" in2="effect1_dropShadow_2535_5" result="shape"/>
</filter>
<filter id="filter1_d_2535_5" x="205.5" y="14" width="151.706" height="144.48" filterUnits="userSpaceOnUse" color-interpolation-filters="sRGB">
<feFlood flood-opacity="0" result="BackgroundImageFix"/>
<feColorMatrix in="SourceAlpha" type="matrix" values="0 0 0 0 0 0 0 0 0 0 0 0 0 0 0 0 0 0 127 0" result="hardAlpha"/>
<feOffset dy="4"/>
<feGaussianBlur stdDeviation="2"/>
<feComposite in2="hardAlpha" operator="out"/>
<feColorMatrix type="matrix" values="0 0 0 0 0 0 0 0 0 0 0 0 0 0 0 0 0 0 0.25 0"/>
<feBlend mode="normal" in2="BackgroundImageFix" result="effect1_dropShadow_2535_5"/>
<feBlend mode="normal" in="SourceGraphic" in2="effect1_dropShadow_2535_5" result="shape"/>
</filter>
</defs>
</svg>
