<svg width="397" height="197" viewBox="0 0 397 197" fill="none" xmlns="http://www.w3.org/2000/svg">
<rect x="0.000114441" width="397" height="197" fill="#837DC3"/>
<rect width="366" height="188" rx="10" fill="#4B458B"/>
<rect x="22.2492" y="21" width="322.614" height="148" rx="23" fill="#383462"/>
<rect x="22.2492" y="31" width="314.827" height="138" rx="23" fill="#252248"/>
<g filter="url(#filter0_di_2551_198)">
<ellipse cx="154.35" cy="67" rx="13.3495" ry="12" fill="#2F2B56"/>
<ellipse cx="154.35" cy="67" rx="8.8997" ry="8" fill="#252248"/>
<ellipse cx="155.35" cy="90" rx="13.3495" ry="11" fill="#2F2B56"/>
<ellipse cx="155.35" cy="89.9998" rx="8.8997" ry="7.33333" fill="#252248"/>
<ellipse cx="155.35" cy="113" rx="13.3495" ry="11" fill="#2F2B56"/>
<ellipse cx="155.35" cy="113" rx="8.8997" ry="7.33333" fill="#252248"/>
<rect x="122" y="108" width="9" height="100" rx="2" transform="rotate(90 122 108)" fill="#2F2B56"/>
<rect x="146" y="108" width="9" height="35" rx="2" transform="rotate(90 146 108)" fill="#2F2B56"/>
<rect x="146" y="86" width="9" height="33" rx="2" transform="rotate(90 146 86)" fill="#2F2B56"/>
<rect x="145" y="62" width="9" height="32" rx="2" transform="rotate(90 145 62)" fill="#2F2B56"/>
<rect x="113" y="62" width="9" height="51" rx="2" fill="#2F2B56"/>
<ellipse cx="121.258" cy="141" rx="12" ry="13.3495" transform="rotate(-90 121.258 141)" fill="#2F2B56"/>
<ellipse cx="121.258" cy="141" rx="8" ry="8.8997" transform="rotate(-90 121.258 141)" fill="#252248"/>
<path d="M132.383 146L132.383 137L159.082 137L159.082 146L132.383 146Z" fill="#2F2B56"/>
<rect x="156.857" y="137" width="10.0122" height="32" rx="2" fill="#2F2B56"/>
</g>
<g filter="url(#filter1_d_2551_198)">
<ellipse cx="351.538" cy="174" rx="11.1246" ry="10" fill="#433E7B"/>
</g>
<g filter="url(#filter2_d_2551_198)">
<ellipse cx="351.538" cy="172.5" rx="11.1246" ry="9.5" fill="#837DC3"/>
</g>
<g filter="url(#filter3_d_2551_198)">
<ellipse cx="15.5745" cy="173.5" rx="11.1246" ry="9.5" fill="#837DC3"/>
</g>
<g filter="url(#filter4_d_2551_198)">
<ellipse cx="15.5745" cy="13.5" rx="11.1246" ry="9.5" fill="#837DC3"/>
</g>
<g filter="url(#filter5_d_2551_198)">
<ellipse cx="351.538" cy="13.5" rx="11.1246" ry="9.5" fill="#837DC3"/>
</g>
<g filter="url(#filter6_d_2551_198)">
<g filter="url(#filter7_d_2551_198)">
<rect x="185" y="40.6191" width="104" height="94.0952" rx="10" fill="#433E7B"/>
<ellipse cx="154.5" cy="67.2381" rx="8.5" ry="7.2381" fill="#6255FF"/>
<rect x="146" y="58.7144" width="47" height="12.6667" rx="6.33333" fill="#433E7B"/>
<path d="M164 89.4998C164 93.4973 160.194 96.7379 155.5 96.7379C150.806 96.7379 147 93.4973 147 89.4998C147 85.5023 150.806 82.2617 155.5 82.2617C160.194 82.2617 164 85.5023 164 89.4998Z" fill="#6255FF"/>
<rect x="147" y="81.333" width="47" height="12.6667" rx="6.33333" fill="#433E7B"/>
<ellipse cx="155.5" cy="112.238" rx="8.5" ry="7.2381" fill="#6255FF"/>
<rect x="147" y="103.952" width="47" height="12.6667" rx="6.33333" fill="#433E7B"/>
<ellipse cx="210" cy="162" rx="7" ry="8" transform="rotate(-90 210 162)" fill="#6255FF"/>
<rect x="203" y="168.19" width="42.5238" height="14" rx="7" transform="rotate(-90 203 168.19)" fill="#433E7B"/>
<ellipse cx="235" cy="161.405" rx="7.69048" ry="8" transform="rotate(-90 235 161.405)" fill="#6255FF"/>
<rect x="228" y="167.286" width="42.5238" height="14" rx="7" transform="rotate(-90 228 167.286)" fill="#433E7B"/>
<ellipse cx="260" cy="161.405" rx="7.69048" ry="8" transform="rotate(-90 260 161.405)" fill="#6255FF"/>
<rect x="253" y="167.286" width="42.5238" height="14" rx="7" transform="rotate(-90 253 167.286)" fill="#433E7B"/>
</g>
<g filter="url(#filter8_d_2551_198)">
<rect x="186" y="37" width="104" height="94.0952" rx="10" fill="#8E86E7"/>
<rect x="149" y="55.0952" width="45.0417" height="12.6667" rx="6.33333" fill="#8E86E7"/>
<rect x="149.958" y="77.7144" width="45.0417" height="12.6667" rx="6.33333" fill="#8E86E7"/>
<rect x="149.958" y="100.333" width="45.0417" height="12.6667" rx="6.33333" fill="#8E86E7"/>
<rect x="204" y="160.048" width="38.0942" height="14" rx="7" transform="rotate(-90 204 160.048)" fill="#8E86E7"/>
<rect x="229" y="159.237" width="38.0942" height="14" rx="7" transform="rotate(-90 229 159.237)" fill="#8E86E7"/>
<rect x="254" y="159.237" width="38.0942" height="14" rx="7" transform="rotate(-90 254 159.237)" fill="#8E86E7"/>
</g>
<g filter="url(#filter9_i_2551_198)">
<rect x="234" y="41.5239" width="6" height="84.1429" rx="1" fill="#4B458B"/>
<rect x="283" y="81.3335" width="5.42857" height="93" rx="1" transform="rotate(90 283 81.3335)" fill="#4B458B"/>
</g>
<g filter="url(#filter10_d_2551_198)">
<path d="M248 120.238V92.1904H261.71C264.119 92.1904 266.141 92.478 267.778 93.0532C269.425 93.6284 270.665 94.441 271.499 95.491C272.343 96.5409 272.765 97.778 272.765 99.2023C272.765 100.234 272.508 101.174 271.993 102.024C271.489 102.873 270.778 103.585 269.862 104.16C268.946 104.726 267.876 105.119 266.651 105.338V105.612C268.01 105.657 269.245 105.963 270.356 106.529C271.468 107.086 272.353 107.858 273.012 108.844C273.671 109.821 274 110.971 274 112.295C274 113.829 273.547 115.194 272.641 116.39C271.746 117.586 270.47 118.526 268.812 119.211C267.155 119.896 265.179 120.238 262.884 120.238H248ZM256.584 114.157H260.599C262.04 114.157 263.12 113.92 263.841 113.445C264.561 112.961 264.922 112.249 264.922 111.309C264.922 110.651 264.752 110.095 264.412 109.638C264.072 109.182 263.589 108.835 262.961 108.597C262.343 108.36 261.597 108.241 260.722 108.241H256.584V114.157ZM256.584 103.53H260.105C260.856 103.53 261.52 103.425 262.096 103.215C262.673 103.005 263.12 102.704 263.439 102.311C263.769 101.909 263.933 101.421 263.933 100.846C263.933 99.9784 263.584 99.3165 262.884 98.86C262.184 98.3943 261.298 98.1615 260.228 98.1615H256.584V103.53Z" fill="#1F306A"/>
</g>
<g filter="url(#filter11_i_2551_198)">
<path d="M250 118.429V92.1904H262.656C264.879 92.1904 266.746 92.4595 268.257 92.9976C269.777 93.5356 270.922 94.2958 271.691 95.278C272.47 96.2602 272.86 97.4175 272.86 98.75C272.86 99.7151 272.622 100.595 272.147 101.389C271.682 102.183 271.026 102.85 270.181 103.388C269.335 103.917 268.347 104.285 267.216 104.49V104.746C268.47 104.788 269.61 105.075 270.637 105.604C271.663 106.125 272.48 106.847 273.088 107.769C273.696 108.683 274 109.759 274 110.998C274 112.433 273.582 113.71 272.746 114.828C271.919 115.947 270.741 116.827 269.211 117.468C267.682 118.108 265.857 118.429 263.739 118.429H250ZM257.924 112.74H261.629C262.96 112.74 263.957 112.518 264.622 112.074C265.287 111.621 265.62 110.955 265.62 110.075C265.62 109.46 265.463 108.939 265.15 108.512C264.836 108.085 264.39 107.761 263.81 107.539C263.24 107.317 262.551 107.206 261.743 107.206H257.924V112.74ZM257.924 102.798H261.173C261.867 102.798 262.48 102.7 263.012 102.504C263.544 102.307 263.957 102.025 264.252 101.658C264.556 101.282 264.708 100.825 264.708 100.287C264.708 99.4759 264.385 98.8567 263.739 98.4297C263.093 97.9941 262.276 97.7763 261.287 97.7763H257.924V102.798Z" fill="#DDF5FF"/>
</g>
<g filter="url(#filter12_d_2551_198)">
<path d="M202 77.7141V49.6665H215.71C218.119 49.6665 220.141 49.9541 221.778 50.5293C223.425 51.1045 224.665 51.9171 225.499 52.967C226.343 54.017 226.765 55.2541 226.765 56.6784C226.765 57.7101 226.508 58.6505 225.993 59.4996C225.489 60.3487 224.778 61.0608 223.862 61.636C222.946 62.2021 221.876 62.5947 220.651 62.8138V63.0877C222.01 63.1334 223.245 63.4392 224.356 64.0053C225.468 64.5622 226.353 65.3337 227.012 66.3198C227.671 67.2967 228 68.4471 228 69.7709C228 71.3048 227.547 72.6698 226.641 73.8658C225.746 75.0618 224.47 76.0022 222.812 76.687C221.155 77.3717 219.179 77.7141 216.884 77.7141H202ZM210.584 71.6335H214.599C216.04 71.6335 217.12 71.3961 217.841 70.9213C218.561 70.4374 218.922 69.7253 218.922 68.7849C218.922 68.1275 218.752 67.5706 218.412 67.1141C218.072 66.6576 217.589 66.3106 216.961 66.0733C216.343 65.8359 215.597 65.7172 214.722 65.7172H210.584V71.6335ZM210.584 61.0061H214.105C214.856 61.0061 215.52 60.9011 216.096 60.6911C216.673 60.4811 217.12 60.1798 217.439 59.7872C217.769 59.3855 217.933 58.897 217.933 58.3218C217.933 57.4545 217.584 56.7925 216.884 56.336C216.184 55.8704 215.298 55.6376 214.228 55.6376H210.584V61.0061Z" fill="#1F306A"/>
</g>
<g filter="url(#filter13_i_2551_198)">
<path d="M204 75.9046V49.6665H216.656C218.879 49.6665 220.746 49.9355 222.257 50.4736C223.777 51.0117 224.922 51.7719 225.691 52.7541C226.47 53.7363 226.86 54.8936 226.86 56.226C226.86 57.1912 226.622 58.0709 226.147 58.8652C225.682 59.6595 225.026 60.3257 224.181 60.8638C223.335 61.3934 222.347 61.7606 221.216 61.9656V62.2218C222.47 62.2645 223.61 62.5507 224.637 63.0802C225.663 63.6012 226.48 64.3229 227.088 65.2454C227.696 66.1593 228 67.2354 228 68.4739C228 69.9088 227.582 71.1857 226.746 72.3045C225.919 73.4234 224.741 74.3032 223.211 74.9437C221.682 75.5843 219.857 75.9046 217.739 75.9046H204ZM211.924 70.2163H215.629C216.96 70.2163 217.957 69.9942 218.622 69.5501C219.287 69.0974 219.62 68.4312 219.62 67.5515C219.62 66.9365 219.463 66.4155 219.15 65.9884C218.836 65.5614 218.39 65.2368 217.81 65.0148C217.24 64.7927 216.551 64.6817 215.743 64.6817H211.924V70.2163ZM211.924 60.2745H215.173C215.867 60.2745 216.48 60.1763 217.012 59.9798C217.544 59.7834 217.957 59.5015 218.252 59.1343C218.556 58.7584 218.708 58.3015 218.708 57.7634C218.708 56.952 218.385 56.3328 217.739 55.9057C217.093 55.4701 216.276 55.2523 215.287 55.2523H211.924V60.2745Z" fill="#DDF5FF"/>
</g>
</g>
<defs>
<filter id="filter0_di_2551_198" x="18" y="55" width="154.699" height="122" filterUnits="userSpaceOnUse" color-interpolation-filters="sRGB">
<feFlood flood-opacity="0" result="BackgroundImageFix"/>
<feColorMatrix in="SourceAlpha" type="matrix" values="0 0 0 0 0 0 0 0 0 0 0 0 0 0 0 0 0 0 127 0" result="hardAlpha"/>
<feOffset dy="4"/>
<feGaussianBlur stdDeviation="2"/>
<feComposite in2="hardAlpha" operator="out"/>
<feColorMatrix type="matrix" values="0 0 0 0 0.177375 0 0 0 0 0.0895833 0 0 0 0 0.716667 0 0 0 0.25 0"/>
<feBlend mode="normal" in2="BackgroundImageFix" result="effect1_dropShadow_2551_198"/>
<feBlend mode="normal" in="SourceGraphic" in2="effect1_dropShadow_2551_198" result="shape"/>
<feColorMatrix in="SourceAlpha" type="matrix" values="0 0 0 0 0 0 0 0 0 0 0 0 0 0 0 0 0 0 127 0" result="hardAlpha"/>
<feOffset dy="4"/>
<feGaussianBlur stdDeviation="2"/>
<feComposite in2="hardAlpha" operator="arithmetic" k2="-1" k3="1"/>
<feColorMatrix type="matrix" values="0 0 0 0 0.139479 0 0 0 0 0.211365 0 0 0 0 0.858333 0 0 0 0.25 0"/>
<feBlend mode="normal" in2="shape" result="effect2_innerShadow_2551_198"/>
</filter>
<filter id="filter1_d_2551_198" x="336.413" y="164" width="30.2492" height="28" filterUnits="userSpaceOnUse" color-interpolation-filters="sRGB">
<feFlood flood-opacity="0" result="BackgroundImageFix"/>
<feColorMatrix in="SourceAlpha" type="matrix" values="0 0 0 0 0 0 0 0 0 0 0 0 0 0 0 0 0 0 127 0" result="hardAlpha"/>
<feOffset dy="4"/>
<feGaussianBlur stdDeviation="2"/>
<feComposite in2="hardAlpha" operator="out"/>
<feColorMatrix type="matrix" values="0 0 0 0 0 0 0 0 0 0 0 0 0 0 0 0 0 0 0.25 0"/>
<feBlend mode="normal" in2="BackgroundImageFix" result="effect1_dropShadow_2551_198"/>
<feBlend mode="normal" in="SourceGraphic" in2="effect1_dropShadow_2551_198" result="shape"/>
</filter>
<filter id="filter2_d_2551_198" x="336.413" y="163" width="30.2492" height="27" filterUnits="userSpaceOnUse" color-interpolation-filters="sRGB">
<feFlood flood-opacity="0" result="BackgroundImageFix"/>
<feColorMatrix in="SourceAlpha" type="matrix" values="0 0 0 0 0 0 0 0 0 0 0 0 0 0 0 0 0 0 127 0" result="hardAlpha"/>
<feOffset dy="4"/>
<feGaussianBlur stdDeviation="2"/>
<feComposite in2="hardAlpha" operator="out"/>
<feColorMatrix type="matrix" values="0 0 0 0 0 0 0 0 0 0 0 0 0 0 0 0 0 0 0.25 0"/>
<feBlend mode="normal" in2="BackgroundImageFix" result="effect1_dropShadow_2551_198"/>
<feBlend mode="normal" in="SourceGraphic" in2="effect1_dropShadow_2551_198" result="shape"/>
</filter>
<filter id="filter3_d_2551_198" x="0.449848" y="164" width="30.2492" height="27" filterUnits="userSpaceOnUse" color-interpolation-filters="sRGB">
<feFlood flood-opacity="0" result="BackgroundImageFix"/>
<feColorMatrix in="SourceAlpha" type="matrix" values="0 0 0 0 0 0 0 0 0 0 0 0 0 0 0 0 0 0 127 0" result="hardAlpha"/>
<feOffset dy="4"/>
<feGaussianBlur stdDeviation="2"/>
<feComposite in2="hardAlpha" operator="out"/>
<feColorMatrix type="matrix" values="0 0 0 0 0 0 0 0 0 0 0 0 0 0 0 0 0 0 0.25 0"/>
<feBlend mode="normal" in2="BackgroundImageFix" result="effect1_dropShadow_2551_198"/>
<feBlend mode="normal" in="SourceGraphic" in2="effect1_dropShadow_2551_198" result="shape"/>
</filter>
<filter id="filter4_d_2551_198" x="0.449848" y="4" width="30.2492" height="27" filterUnits="userSpaceOnUse" color-interpolation-filters="sRGB">
<feFlood flood-opacity="0" result="BackgroundImageFix"/>
<feColorMatrix in="SourceAlpha" type="matrix" values="0 0 0 0 0 0 0 0 0 0 0 0 0 0 0 0 0 0 127 0" result="hardAlpha"/>
<feOffset dy="4"/>
<feGaussianBlur stdDeviation="2"/>
<feComposite in2="hardAlpha" operator="out"/>
<feColorMatrix type="matrix" values="0 0 0 0 0 0 0 0 0 0 0 0 0 0 0 0 0 0 0.25 0"/>
<feBlend mode="normal" in2="BackgroundImageFix" result="effect1_dropShadow_2551_198"/>
<feBlend mode="normal" in="SourceGraphic" in2="effect1_dropShadow_2551_198" result="shape"/>
</filter>
<filter id="filter5_d_2551_198" x="336.413" y="4" width="30.2492" height="27" filterUnits="userSpaceOnUse" color-interpolation-filters="sRGB">
<feFlood flood-opacity="0" result="BackgroundImageFix"/>
<feColorMatrix in="SourceAlpha" type="matrix" values="0 0 0 0 0 0 0 0 0 0 0 0 0 0 0 0 0 0 127 0" result="hardAlpha"/>
<feOffset dy="4"/>
<feGaussianBlur stdDeviation="2"/>
<feComposite in2="hardAlpha" operator="out"/>
<feColorMatrix type="matrix" values="0 0 0 0 0 0 0 0 0 0 0 0 0 0 0 0 0 0 0.25 0"/>
<feBlend mode="normal" in2="BackgroundImageFix" result="effect1_dropShadow_2551_198"/>
<feBlend mode="normal" in="SourceGraphic" in2="effect1_dropShadow_2551_198" result="shape"/>
</filter>
<filter id="filter6_d_2551_198" x="142" y="37" width="152" height="140.095" filterUnits="userSpaceOnUse" color-interpolation-filters="sRGB">
<feFlood flood-opacity="0" result="BackgroundImageFix"/>
<feColorMatrix in="SourceAlpha" type="matrix" values="0 0 0 0 0 0 0 0 0 0 0 0 0 0 0 0 0 0 127 0" result="hardAlpha"/>
<feOffset dy="4"/>
<feGaussianBlur stdDeviation="2"/>
<feComposite in2="hardAlpha" operator="out"/>
<feColorMatrix type="matrix" values="0 0 0 0 0.0993344 0 0 0 0 0.0900521 0 0 0 0 0.554167 0 0 0 0.75 0"/>
<feBlend mode="normal" in2="BackgroundImageFix" result="effect1_dropShadow_2551_198"/>
<feBlend mode="normal" in="SourceGraphic" in2="effect1_dropShadow_2551_198" result="shape"/>
</filter>
<filter id="filter7_d_2551_198" x="142" y="40.6191" width="151" height="136.476" filterUnits="userSpaceOnUse" color-interpolation-filters="sRGB">
<feFlood flood-opacity="0" result="BackgroundImageFix"/>
<feColorMatrix in="SourceAlpha" type="matrix" values="0 0 0 0 0 0 0 0 0 0 0 0 0 0 0 0 0 0 127 0" result="hardAlpha"/>
<feOffset dy="4"/>
<feGaussianBlur stdDeviation="2"/>
<feComposite in2="hardAlpha" operator="out"/>
<feColorMatrix type="matrix" values="0 0 0 0 0 0 0 0 0 0.16 0 0 0 0 1 0 0 0 0.25 0"/>
<feBlend mode="normal" in2="BackgroundImageFix" result="effect1_dropShadow_2551_198"/>
<feBlend mode="normal" in="SourceGraphic" in2="effect1_dropShadow_2551_198" result="shape"/>
</filter>
<filter id="filter8_d_2551_198" x="145" y="37" width="149" height="131.048" filterUnits="userSpaceOnUse" color-interpolation-filters="sRGB">
<feFlood flood-opacity="0" result="BackgroundImageFix"/>
<feColorMatrix in="SourceAlpha" type="matrix" values="0 0 0 0 0 0 0 0 0 0 0 0 0 0 0 0 0 0 127 0" result="hardAlpha"/>
<feOffset dy="4"/>
<feGaussianBlur stdDeviation="2"/>
<feComposite in2="hardAlpha" operator="out"/>
<feColorMatrix type="matrix" values="0 0 0 0 0 0 0 0 0 0.16 0 0 0 0 1 0 0 0 0.25 0"/>
<feBlend mode="normal" in2="BackgroundImageFix" result="effect1_dropShadow_2551_198"/>
<feBlend mode="normal" in="SourceGraphic" in2="effect1_dropShadow_2551_198" result="shape"/>
</filter>
<filter id="filter9_i_2551_198" x="190" y="41.5239" width="93" height="88.1431" filterUnits="userSpaceOnUse" color-interpolation-filters="sRGB">
<feFlood flood-opacity="0" result="BackgroundImageFix"/>
<feBlend mode="normal" in="SourceGraphic" in2="BackgroundImageFix" result="shape"/>
<feColorMatrix in="SourceAlpha" type="matrix" values="0 0 0 0 0 0 0 0 0 0 0 0 0 0 0 0 0 0 127 0" result="hardAlpha"/>
<feOffset dy="4"/>
<feGaussianBlur stdDeviation="2"/>
<feComposite in2="hardAlpha" operator="arithmetic" k2="-1" k3="1"/>
<feColorMatrix type="matrix" values="0 0 0 0 0 0 0 0 0 0 0 0 0 0 0 0 0 0 0.25 0"/>
<feBlend mode="normal" in2="shape" result="effect1_innerShadow_2551_198"/>
</filter>
<filter id="filter10_d_2551_198" x="244" y="92.1904" width="34" height="36.0479" filterUnits="userSpaceOnUse" color-interpolation-filters="sRGB">
<feFlood flood-opacity="0" result="BackgroundImageFix"/>
<feColorMatrix in="SourceAlpha" type="matrix" values="0 0 0 0 0 0 0 0 0 0 0 0 0 0 0 0 0 0 127 0" result="hardAlpha"/>
<feOffset dy="4"/>
<feGaussianBlur stdDeviation="2"/>
<feComposite in2="hardAlpha" operator="out"/>
<feColorMatrix type="matrix" values="0 0 0 0 0 0 0 0 0 0.638938 0 0 0 0 0.99834 0 0 0 0.25 0"/>
<feBlend mode="normal" in2="BackgroundImageFix" result="effect1_dropShadow_2551_198"/>
<feBlend mode="normal" in="SourceGraphic" in2="effect1_dropShadow_2551_198" result="shape"/>
</filter>
<filter id="filter11_i_2551_198" x="250" y="92.1904" width="24" height="30.2383" filterUnits="userSpaceOnUse" color-interpolation-filters="sRGB">
<feFlood flood-opacity="0" result="BackgroundImageFix"/>
<feBlend mode="normal" in="SourceGraphic" in2="BackgroundImageFix" result="shape"/>
<feColorMatrix in="SourceAlpha" type="matrix" values="0 0 0 0 0 0 0 0 0 0 0 0 0 0 0 0 0 0 127 0" result="hardAlpha"/>
<feOffset dy="4"/>
<feGaussianBlur stdDeviation="2"/>
<feComposite in2="hardAlpha" operator="arithmetic" k2="-1" k3="1"/>
<feColorMatrix type="matrix" values="0 0 0 0 0 0 0 0 0 0.638938 0 0 0 0 0.99834 0 0 0 0.25 0"/>
<feBlend mode="normal" in2="shape" result="effect1_innerShadow_2551_198"/>
</filter>
<filter id="filter12_d_2551_198" x="198" y="49.6665" width="34" height="36.0479" filterUnits="userSpaceOnUse" color-interpolation-filters="sRGB">
<feFlood flood-opacity="0" result="BackgroundImageFix"/>
<feColorMatrix in="SourceAlpha" type="matrix" values="0 0 0 0 0 0 0 0 0 0 0 0 0 0 0 0 0 0 127 0" result="hardAlpha"/>
<feOffset dy="4"/>
<feGaussianBlur stdDeviation="2"/>
<feComposite in2="hardAlpha" operator="out"/>
<feColorMatrix type="matrix" values="0 0 0 0 0 0 0 0 0 0.638938 0 0 0 0 0.99834 0 0 0 0.25 0"/>
<feBlend mode="normal" in2="BackgroundImageFix" result="effect1_dropShadow_2551_198"/>
<feBlend mode="normal" in="SourceGraphic" in2="effect1_dropShadow_2551_198" result="shape"/>
</filter>
<filter id="filter13_i_2551_198" x="204" y="49.6665" width="24" height="30.2383" filterUnits="userSpaceOnUse" color-interpolation-filters="sRGB">
<feFlood flood-opacity="0" result="BackgroundImageFix"/>
<feBlend mode="normal" in="SourceGraphic" in2="BackgroundImageFix" result="shape"/>
<feColorMatrix in="SourceAlpha" type="matrix" values="0 0 0 0 0 0 0 0 0 0 0 0 0 0 0 0 0 0 127 0" result="hardAlpha"/>
<feOffset dy="4"/>
<feGaussianBlur stdDeviation="2"/>
<feComposite in2="hardAlpha" operator="arithmetic" k2="-1" k3="1"/>
<feColorMatrix type="matrix" values="0 0 0 0 0 0 0 0 0 0.638938 0 0 0 0 0.99834 0 0 0 0.25 0"/>
<feBlend mode="normal" in2="shape" result="effect1_innerShadow_2551_198"/>
</filter>
</defs>
</svg>
