<svg width="411" height="199" viewBox="0 0 411 199" fill="none" xmlns="http://www.w3.org/2000/svg">
<g filter="url(#filter0_d_2535_34)">
<ellipse cx="85.354" cy="81.6193" rx="72.5837" ry="70.6193" fill="#4B458B"/>
<rect x="85.3541" y="11" width="193.23" height="141" fill="#4B458B"/>
<path d="M279.074 11L393.325 152H164.823L279.074 11Z" fill="#4B458B"/>
<ellipse cx="77.5071" cy="74" rx="72.5837" ry="74" fill="#FF957D"/>
<rect x="77.5071" width="193.23" height="148" fill="#FF957D"/>
<path d="M271.227 0L385.478 147.75H156.976L271.227 0Z" fill="#FF957D"/>
<g filter="url(#filter1_d_2535_34)">
<path d="M317.221 47.9491C310.91 38.9254 324.56 28.3853 336.366 30.606L317.221 47.9491Z" fill="#FFFCAD" stroke="#FFFCAD"/>
<path d="M230.671 125.992C230.258 128.301 231.575 143.739 231.575 152H212.892C208.65 134.571 207.197 137.967 208.334 121.175C208.334 121.175 231.083 123.684 230.671 125.992Z" fill="#FFFCAD"/>
<path d="M208.334 118.284L231.575 121.175C231.729 110.585 233.8 99.978 233.8 97.0875C233.8 94.197 215.171 86.4891 215.171 86.4891C210.224 97.5342 209.17 104.763 208.334 118.284Z" fill="#FFFCAD"/>
<path d="M234.711 93.7153L216.539 83.1168C220.91 72.1678 226.681 65.5614 233.406 56.6207L244.284 72.0366C240.184 79.4186 237.762 84.2068 234.711 93.7153Z" fill="#FFFCAD"/>
<path d="M246.108 69.6279L235.623 54.212C242.283 46.6063 243.107 42.7369 252.034 38.3143L259.783 55.1755C254.055 59.4275 251.053 62.5455 246.108 69.6279Z" fill="#FFFCAD"/>
<path d="M276.194 46.9858C271.081 47.8027 268.9 50.358 262.974 52.7667C259.355 48.2624 258.158 42.819 256.198 36.3873C264.104 32.816 268.997 30.332 277.106 29.6429L276.194 46.9858Z" fill="#FFFCAD"/>
<path d="M279.447 29.6429V45.5405L292.149 42.1683C291.625 35.6071 293.005 31.9124 296.79 25.3071C290.025 25.3071 286.211 29.6429 279.447 29.6429Z" fill="#FFFCAD"/>
<path d="M230.671 125.992C230.258 128.301 231.575 143.739 231.575 152H212.892C208.65 134.571 207.197 137.967 208.334 121.175C208.334 121.175 231.083 123.684 230.671 125.992Z" stroke="#FFFCAD"/>
<path d="M208.334 118.284L231.575 121.175C231.729 110.585 233.8 99.978 233.8 97.0875C233.8 94.197 215.171 86.4891 215.171 86.4891C210.224 97.5342 209.17 104.763 208.334 118.284Z" stroke="#FFFCAD"/>
<path d="M234.711 93.7153L216.539 83.1168C220.91 72.1678 226.681 65.5614 233.406 56.6207L244.284 72.0366C240.184 79.4186 237.762 84.2068 234.711 93.7153Z" stroke="#FFFCAD"/>
<path d="M246.108 69.6279L235.623 54.212C242.283 46.6063 243.107 42.7369 252.034 38.3143L259.783 55.1755C254.055 59.4275 251.053 62.5455 246.108 69.6279Z" stroke="#FFFCAD"/>
<path d="M276.194 46.9858C271.081 47.8027 268.9 50.358 262.974 52.7667C259.355 48.2624 258.158 42.819 256.198 36.3873C264.104 32.816 268.997 30.332 277.106 29.6429L276.194 46.9858Z" stroke="#FFFCAD"/>
<path d="M279.447 29.6429V45.5405L292.149 42.1683C291.625 35.6071 293.005 31.9124 296.79 25.3071C290.025 25.3071 286.211 29.6429 279.447 29.6429Z" stroke="#FFFCAD"/>
<path d="M235.099 147.977C242.849 142.196 209.183 61.9198 295.795 45.0586C295.746 32.3842 301.101 26.7061 318.132 18.5625C312.454 31.8494 310.839 45.0586 316.765 51.3213C322.691 57.584 348.674 112.985 348.674 112.985C348.674 112.985 348.674 114.43 348.674 126.474C348.674 138.518 340.003 139.536 321.779 132.737C322.778 127.323 322.061 124.382 319.5 119.248C289.841 108.654 278.959 100.633 283.032 77.8174C276.591 101.828 278.131 99.058 316.765 145.965L235.099 147.977Z" fill="#FFFCAD" stroke="#FFFCAD"/>
<path d="M306.101 62.543L320.421 77.3809C310.036 79.6007 306.421 77.155 306.101 62.543Z" fill="#FFFCAD" stroke="#FFFCAD"/>
<path d="M320.271 43.8679C314.072 35.3168 327.48 25.3288 339.077 27.4332L320.271 43.8679Z" fill="#A29200" stroke="#A29200"/>
<path d="M235.254 117.823C234.849 120.011 236.143 134.64 236.143 142.469H217.791C213.624 125.952 212.197 129.171 213.313 113.258C213.313 113.258 235.66 115.635 235.254 117.823Z" fill="#A29200"/>
<path d="M213.313 110.519L236.143 113.258C236.294 103.222 238.328 93.1714 238.328 90.4323C238.328 87.6932 220.03 80.389 220.03 80.389C215.17 90.8556 214.135 97.7054 213.313 110.519Z" fill="#A29200"/>
<path d="M239.224 87.2367L221.373 77.1934C225.667 66.8179 231.336 60.5576 237.941 52.0852L248.627 66.6936C244.6 73.6889 242.22 78.2263 239.224 87.2367Z" fill="#A29200"/>
<path d="M250.418 64.4111L240.119 49.8026C246.661 42.5954 247.471 38.9286 256.239 34.7377L263.851 50.7157C258.224 54.745 255.275 57.6996 250.418 64.4111Z" fill="#A29200"/>
<path d="M279.971 42.955C274.949 43.7291 272.807 46.1505 266.986 48.4331C263.431 44.1647 262.254 39.0064 260.33 32.9117C268.096 29.5274 272.901 27.1735 280.867 26.5205L279.971 42.955Z" fill="#A29200"/>
<path d="M283.166 26.5205V41.5854L295.643 38.3898C295.129 32.1723 296.485 28.6711 300.202 22.4119C293.557 22.4119 289.811 26.5205 283.166 26.5205Z" fill="#A29200"/>
<path d="M235.254 117.823C234.849 120.011 236.143 134.64 236.143 142.469H217.791C213.624 125.952 212.197 129.171 213.313 113.258C213.313 113.258 235.66 115.635 235.254 117.823Z" stroke="#A29200"/>
<path d="M213.313 110.519L236.143 113.258C236.294 103.222 238.328 93.1714 238.328 90.4323C238.328 87.6932 220.03 80.389 220.03 80.389C215.17 90.8556 214.135 97.7054 213.313 110.519Z" stroke="#A29200"/>
<path d="M239.224 87.2367L221.373 77.1934C225.667 66.8179 231.336 60.5576 237.941 52.0852L248.627 66.6936C244.6 73.6889 242.22 78.2263 239.224 87.2367Z" stroke="#A29200"/>
<path d="M250.418 64.4111L240.119 49.8026C246.661 42.5954 247.471 38.9286 256.239 34.7377L263.851 50.7157C258.224 54.745 255.275 57.6996 250.418 64.4111Z" stroke="#A29200"/>
<path d="M279.971 42.955C274.949 43.7291 272.807 46.1505 266.986 48.4331C263.431 44.1647 262.254 39.0064 260.33 32.9117C268.096 29.5274 272.901 27.1735 280.867 26.5205L279.971 42.955Z" stroke="#A29200"/>
<path d="M283.166 26.5205V41.5854L295.643 38.3898C295.129 32.1723 296.485 28.6711 300.202 22.4119C293.557 22.4119 289.811 26.5205 283.166 26.5205Z" stroke="#A29200"/>
<path d="M239.605 138.656C247.217 133.178 214.148 57.1069 299.225 41.129C299.177 29.1185 304.437 23.7378 321.166 16.0208C315.588 28.6117 314.002 41.129 319.823 47.0636C325.644 52.9983 351.167 105.497 351.167 105.497C351.167 105.497 351.167 106.867 351.167 118.28C351.167 129.692 342.65 130.658 324.749 124.214C325.73 119.084 325.026 116.298 322.51 111.432C293.377 101.393 282.688 93.7921 286.688 72.1718C280.361 94.9244 281.874 92.2998 319.823 136.75L239.605 138.656Z" fill="#A29200" stroke="#A29200"/>
<path d="M309.348 57.6973L323.415 71.7579C313.214 73.8615 309.663 71.5439 309.348 57.6973Z" fill="#FFFCAD" stroke="#A29200"/>
</g>
<path d="M16.7221 104V38.5455H44.9749C49.8329 38.5455 54.0836 39.5043 57.7271 41.4219C61.3705 43.3395 64.2043 46.0348 66.2285 49.5078C68.2526 52.9808 69.2647 57.0398 69.2647 61.6847C69.2647 66.3722 68.2207 70.4311 66.1326 73.8615C64.0658 77.2919 61.1575 79.9339 57.4075 81.7876C53.6788 83.6413 49.3215 84.5682 44.3357 84.5682H27.4607V70.7614H40.7562C42.8443 70.7614 44.6234 70.3991 46.0935 69.6747C47.585 68.929 48.7249 67.8743 49.5133 66.5107C50.3229 65.147 50.7278 63.5384 50.7278 61.6847C50.7278 59.8097 50.3229 58.2116 49.5133 56.8906C48.7249 55.5483 47.585 54.5256 46.0935 53.8224C44.6234 53.098 42.8443 52.7358 40.7562 52.7358H34.492V104H16.7221ZM143.444 54.9091L126.953 104H106.498L90.0069 54.9091H108.544L116.47 87.3807H116.981L124.907 54.9091H143.444ZM166.136 104V38.5455H194.389C199.247 38.5455 203.498 39.5043 207.141 41.4219C210.785 43.3395 213.618 46.0348 215.643 49.5078C217.667 52.9808 218.679 57.0398 218.679 61.6847C218.679 66.3722 217.635 70.4311 215.547 73.8615C213.48 77.2919 210.572 79.9339 206.822 81.7876C203.093 83.6413 198.736 84.5682 193.75 84.5682H176.875V70.7614H190.17C192.258 70.7614 194.037 70.3991 195.508 69.6747C196.999 68.929 198.139 67.8743 198.927 66.5107C199.737 65.147 200.142 63.5384 200.142 61.6847C200.142 59.8097 199.737 58.2116 198.927 56.8906C198.139 55.5483 196.999 54.5256 195.508 53.8224C194.037 53.098 192.258 52.7358 190.17 52.7358H183.906V104H166.136Z" fill="#4B458B"/>
<path d="M18.6838 100V34.5455H46.9366C51.7946 34.5455 56.0453 35.5043 59.6887 37.4219C63.3322 39.3395 66.166 42.0348 68.1902 45.5078C70.2143 48.9808 71.2264 53.0398 71.2264 57.6847C71.2264 62.3722 70.1823 66.4311 68.0943 69.8615C66.0275 73.2919 63.1191 75.9339 59.3691 77.7876C55.6404 79.6413 51.2832 80.5682 46.2974 80.5682H29.4224V66.7614H42.7179C44.8059 66.7614 46.585 66.3991 48.0552 65.6747C49.5467 64.929 50.6866 63.8743 51.475 62.5107C52.2846 61.147 52.6894 59.5384 52.6894 57.6847C52.6894 55.8097 52.2846 54.2116 51.475 52.8906C50.6866 51.5483 49.5467 50.5256 48.0552 49.8224C46.585 49.098 44.8059 48.7358 42.7179 48.7358H36.4536V100H18.6838ZM145.406 50.9091L128.915 100H108.46L91.9686 50.9091H110.505L118.432 83.3807H118.943L126.869 50.9091H145.406ZM168.098 100V34.5455H196.351C201.209 34.5455 205.459 35.5043 209.103 37.4219C212.746 39.3395 215.58 42.0348 217.604 45.5078C219.628 48.9808 220.64 53.0398 220.64 57.6847C220.64 62.3722 219.596 66.4311 217.508 69.8615C215.442 73.2919 212.533 75.9339 208.783 77.7876C205.055 79.6413 200.697 80.5682 195.711 80.5682H178.836V66.7614H192.132C194.22 66.7614 195.999 66.3991 197.469 65.6747C198.961 64.929 200.101 63.8743 200.889 62.5107C201.699 61.147 202.104 59.5384 202.104 57.6847C202.104 55.8097 201.699 54.2116 200.889 52.8906C200.101 51.5483 198.961 50.5256 197.469 49.8224C195.999 49.098 194.22 48.7358 192.132 48.7358H185.868V100H168.098Z" fill="#EEEDFF"/>
</g>
<defs>
<filter id="filter0_d_2535_34" x="0.92334" y="0" width="396.402" height="160.5" filterUnits="userSpaceOnUse" color-interpolation-filters="sRGB">
<feFlood flood-opacity="0" result="BackgroundImageFix"/>
<feColorMatrix in="SourceAlpha" type="matrix" values="0 0 0 0 0 0 0 0 0 0 0 0 0 0 0 0 0 0 127 0" result="hardAlpha"/>
<feOffset dy="4"/>
<feGaussianBlur stdDeviation="2"/>
<feComposite in2="hardAlpha" operator="out"/>
<feColorMatrix type="matrix" values="0 0 0 0 0 0 0 0 0 0 0 0 0 0 0 0 0 0 0.25 0"/>
<feBlend mode="normal" in2="BackgroundImageFix" result="effect1_dropShadow_2535_34"/>
<feBlend mode="normal" in="SourceGraphic" in2="effect1_dropShadow_2535_34" result="shape"/>
</filter>
<filter id="filter1_d_2535_34" x="203.462" y="15.0117" width="152.206" height="145.489" filterUnits="userSpaceOnUse" color-interpolation-filters="sRGB">
<feFlood flood-opacity="0" result="BackgroundImageFix"/>
<feColorMatrix in="SourceAlpha" type="matrix" values="0 0 0 0 0 0 0 0 0 0 0 0 0 0 0 0 0 0 127 0" result="hardAlpha"/>
<feOffset dy="4"/>
<feGaussianBlur stdDeviation="2"/>
<feComposite in2="hardAlpha" operator="out"/>
<feColorMatrix type="matrix" values="0 0 0 0 0 0 0 0 0 0 0 0 0 0 0 0 0 0 0.25 0"/>
<feBlend mode="normal" in2="BackgroundImageFix" result="effect1_dropShadow_2535_34"/>
<feBlend mode="normal" in="SourceGraphic" in2="effect1_dropShadow_2535_34" result="shape"/>
</filter>
</defs>
</svg>
