<svg width="503" height="205" viewBox="0 0 503 205" fill="none" xmlns="http://www.w3.org/2000/svg">
<ellipse cx="334.549" cy="128.37" rx="74.568" ry="76.6293" transform="rotate(-180 334.549 128.37)" fill="#433E7B"/>
<rect x="334.549" y="205" width="198.512" height="153.259" transform="rotate(-180 334.549 205)" fill="#433E7B"/>
<path d="M135.532 205L18.1579 51.9999L252.907 52L135.532 205Z" fill="#433E7B"/>
<ellipse cx="349.829" cy="127.364" rx="76.6365" ry="76.6257" transform="rotate(-180 349.829 127.364)" fill="#CFCBFF"/>
<rect x="349.829" y="203.99" width="204.019" height="153.251" transform="rotate(-180 349.829 203.99)" fill="#CFCBFF"/>
<path d="M145.292 203.99L24.6616 50.9975L265.922 50.9975L145.292 203.99Z" fill="#CFCBFF"/>
<g filter="url(#filter0_d_2504_108)">
<path d="M349.745 23.9164L290.558 57.2454C279.594 63.9823 280.598 66.9772 286.986 71.8899L352.296 109.259C361.886 114.823 366.789 114.559 374.746 109.259L436.995 71.8899C443.494 66.0102 444.03 62.7892 436.995 57.2454C436.995 57.2454 379.747 24.1229 372.705 21.3915C365.664 18.6601 357.111 20.6204 349.745 23.9164Z" fill="#433E7B" stroke="#433E7B"/>
<path d="M349.745 18.8666L290.558 52.1956C279.594 58.9325 280.598 61.9274 286.986 66.8401L352.296 104.209C361.886 109.773 366.789 109.509 374.746 104.209L436.995 66.8401C443.494 60.9604 444.03 57.7394 436.995 52.1956C436.995 52.1956 379.747 19.0731 372.705 16.3417C365.664 13.6103 357.111 15.5706 349.745 18.8666Z" fill="#433E7B" stroke="#433E7B"/>
<path d="M349.745 13.8166L290.558 47.1455C279.594 53.8824 280.598 56.8773 286.986 61.7901L352.296 99.1589C361.886 104.723 366.789 104.459 374.746 99.1589L436.995 61.7901C443.494 55.9104 444.03 52.6894 436.995 47.1455C436.995 47.1455 379.747 14.023 372.705 11.2916C365.664 8.56025 357.111 10.5205 349.745 13.8166Z" fill="#CFCBFF" stroke="#CFCBFF"/>
<path d="M355.427 22.8285L312.729 46.6572C305.301 52.2895 306.076 54.5183 310.152 57.1274L357.267 83.8445C364.186 87.8225 367.722 87.6336 373.463 83.8445L418.37 57.1274C423.058 52.9237 423.445 50.6208 418.37 46.6572C418.37 46.6572 377.07 22.9761 371.991 21.0233C366.911 19.0704 360.74 20.472 355.427 22.8285Z" fill="#948DE7" stroke="#CFCBFF"/>
<path d="M398.553 33.3186L334.273 72.3491" stroke="#CFCBFF" stroke-width="5"/>
<path d="M401.358 72.9126L336.063 29.9642" stroke="#CFCBFF" stroke-width="5"/>
<g filter="url(#filter1_i_2504_108)">
<path d="M336.359 62.5184L317.945 50.8892L325.455 45.8374C326.775 44.9499 328.071 44.3239 329.345 43.9594C330.625 43.5911 331.838 43.471 332.984 43.5991C334.135 43.7235 335.179 44.0809 336.114 44.6714C336.791 45.0992 337.267 45.5839 337.543 46.1256C337.824 46.6635 337.903 47.2205 337.779 47.7965C337.648 48.3688 337.32 48.926 336.793 49.4681L336.973 49.5817C337.747 49.1 338.624 48.7717 339.605 48.5968C340.579 48.4181 341.57 48.4119 342.579 48.578C343.581 48.7403 344.516 49.0959 345.386 49.6448C346.393 50.2808 347.041 51.0136 347.33 51.8433C347.624 52.6691 347.543 53.5293 347.084 54.4238C346.626 55.3184 345.769 56.1885 344.511 57.0343L336.359 62.5184ZM337.069 56.8342L339.268 55.355C340.057 54.8241 340.493 54.3274 340.576 53.8651C340.653 53.399 340.383 52.971 339.766 52.5811C339.334 52.3085 338.875 52.1402 338.39 52.076C337.904 52.0119 337.411 52.0463 336.911 52.1792C336.417 52.3084 335.931 52.5341 335.451 52.8565L333.185 54.3811L337.069 56.8342ZM330.092 52.4278L332.02 51.1307C332.432 50.8538 332.726 50.5657 332.904 50.2662C333.082 49.9668 333.13 49.6769 333.047 49.3965C332.963 49.1086 332.733 48.8454 332.355 48.6069C331.786 48.2473 331.16 48.1018 330.477 48.1704C329.787 48.2352 329.15 48.4649 328.563 48.8593L326.568 50.2019L330.092 52.4278Z" fill="#B5D7FF"/>
</g>
<g filter="url(#filter2_i_2504_108)">
<path d="M399.942 60.4987L383.758 50.2939L390.359 45.861C391.518 45.0822 392.658 44.5329 393.778 44.213C394.902 43.8898 395.968 43.7844 396.976 43.8969C397.988 44.006 398.905 44.3196 399.727 44.8378C400.322 45.2132 400.741 45.6386 400.983 46.1139C401.23 46.5859 401.299 47.0746 401.19 47.5801C401.076 48.0823 400.787 48.5712 400.324 49.047L400.482 49.1466C401.162 48.724 401.933 48.4359 402.795 48.2824C403.652 48.1256 404.523 48.1201 405.409 48.2659C406.29 48.4083 407.112 48.7204 407.876 49.202C408.761 49.7601 409.331 50.4031 409.585 51.1312C409.844 51.8559 409.772 52.6107 409.37 53.3957C408.967 54.1806 408.213 54.9442 407.108 55.6863L399.942 60.4987ZM400.566 55.5107L402.499 54.2128C403.193 53.7469 403.576 53.3111 403.649 52.9054C403.717 52.4963 403.479 52.1208 402.937 51.7786C402.557 51.5394 402.154 51.3917 401.727 51.3354C401.3 51.2792 400.867 51.3094 400.428 51.426C399.994 51.5393 399.566 51.7374 399.145 52.0203L397.152 53.3582L400.566 55.5107ZM394.434 51.6441L396.129 50.5059C396.491 50.263 396.75 50.0101 396.906 49.7473C397.062 49.4845 397.104 49.2302 397.031 48.9841C396.958 48.7315 396.755 48.5005 396.423 48.2912C395.923 47.9757 395.372 47.848 394.772 47.9082C394.166 47.9651 393.606 48.1666 393.09 48.5127L391.336 49.6908L394.434 51.6441Z" fill="#B5D7FF"/>
</g>
<rect width="29.1225" height="15.1091" rx="2.5" transform="matrix(0.860734 -0.509898 0.486072 0.873437 271.802 82.5283)" fill="#433E7B"/>
<rect width="33.618" height="4.4317" rx="2.21585" transform="matrix(0.860734 -0.509898 0.486072 0.873437 272.407 82.1567)" fill="#CFCBFF"/>
<rect width="29.1227" height="15.109" rx="2.5" transform="matrix(0.860731 -0.509896 0.486075 0.873442 284.048 90.6082)" fill="#433E7B"/>
<rect width="33.6182" height="4.43167" rx="2.21584" transform="matrix(0.860731 -0.509896 0.486075 0.873442 284.652 90.2368)" fill="#CFCBFF"/>
<rect width="29.1227" height="15.109" rx="2.5" transform="matrix(0.860731 -0.509896 0.486075 0.873442 299.355 97.6777)" fill="#433E7B"/>
<rect width="33.6182" height="4.43167" rx="2.21584" transform="matrix(0.860731 -0.509896 0.486075 0.873442 299.959 97.3066)" fill="#CFCBFF"/>
<rect width="29.1227" height="15.109" rx="2.5" transform="matrix(0.860731 -0.509896 0.486075 0.873442 313.641 106.767)" fill="#433E7B"/>
<rect width="33.6182" height="4.43167" rx="2.21584" transform="matrix(0.860731 -0.509896 0.486075 0.873442 314.246 106.396)" fill="#CFCBFF"/>
<rect width="29.122" height="15.1095" rx="2.5" transform="matrix(-0.901837 -0.434825 -0.408437 0.91152 454.696 77.2478)" fill="#433E7B"/>
<rect width="33.6173" height="4.43181" rx="2.2159" transform="matrix(-0.901837 -0.434825 -0.408437 0.91152 454.062 76.9287)" fill="#CFCBFF"/>
<rect width="29.122" height="15.1095" rx="2.5" transform="matrix(-0.901837 -0.434825 -0.408437 0.91152 443.197 86.3391)" fill="#433E7B"/>
<rect width="33.6173" height="4.43181" rx="2.2159" transform="matrix(-0.901837 -0.434825 -0.408437 0.91152 442.563 86.0205)" fill="#CFCBFF"/>
<rect width="29.122" height="15.1095" rx="2.5" transform="matrix(-0.901837 -0.434825 -0.408437 0.91152 428.561 94.6848)" fill="#433E7B"/>
<rect width="33.6173" height="4.43181" rx="2.2159" transform="matrix(-0.901837 -0.434825 -0.408437 0.91152 427.927 94.3657)" fill="#CFCBFF"/>
<rect width="29.122" height="15.1095" rx="2.5" transform="matrix(-0.901837 -0.434825 -0.408437 0.91152 415.116 104.955)" fill="#433E7B"/>
<rect width="33.6173" height="4.43181" rx="2.2159" transform="matrix(-0.901837 -0.434825 -0.408437 0.91152 414.482 104.636)" fill="#CFCBFF"/>
</g>
<path d="M130.739 111.606V76.6971H145.876C148.535 76.6971 150.768 77.0551 152.575 77.771C154.393 78.4869 155.762 79.4982 156.683 80.8051C157.614 82.1119 158.08 83.6517 158.08 85.4244C158.08 86.7085 157.796 87.8789 157.228 88.9357C156.671 89.9926 155.887 90.8789 154.876 91.5948C153.864 92.2994 152.683 92.788 151.33 93.0607V93.4017C152.83 93.4585 154.194 93.8392 155.421 94.5437C156.649 95.2369 157.626 96.1971 158.353 97.4244C159.08 98.6403 159.444 100.072 159.444 101.72C159.444 103.629 158.944 105.328 157.944 106.816C156.955 108.305 155.546 109.476 153.717 110.328C151.887 111.18 149.705 111.606 147.171 111.606H130.739ZM140.217 104.038H144.649C146.239 104.038 147.433 103.743 148.228 103.152C149.024 102.549 149.421 101.663 149.421 100.493C149.421 99.6744 149.234 98.9812 148.859 98.413C148.484 97.8448 147.95 97.413 147.256 97.1176C146.575 96.8221 145.751 96.6744 144.785 96.6744H140.217V104.038ZM140.217 90.8107H144.103C144.933 90.8107 145.666 90.6801 146.302 90.4187C146.938 90.1573 147.433 89.7823 147.785 89.2937C148.149 88.7937 148.33 88.1857 148.33 87.4698C148.33 86.3903 147.944 85.5664 147.171 84.9982C146.399 84.4187 145.421 84.1289 144.239 84.1289H140.217V90.8107ZM162.802 111.606V76.6971H172.279V103.97H186.393V111.606H162.802ZM210.883 76.6971H220.36V99.0607C220.36 101.72 219.724 104.021 218.451 105.964C217.19 107.896 215.428 109.39 213.167 110.447C210.906 111.493 208.281 112.015 205.292 112.015C202.281 112.015 199.644 111.493 197.383 110.447C195.122 109.39 193.36 107.896 192.099 105.964C190.849 104.021 190.224 101.72 190.224 99.0607V76.6971H199.701V98.2426C199.701 99.3221 199.94 100.288 200.417 101.14C200.894 101.981 201.553 102.64 202.394 103.118C203.247 103.595 204.212 103.833 205.292 103.833C206.383 103.833 207.349 103.595 208.19 103.118C209.031 102.64 209.69 101.981 210.167 101.14C210.644 100.288 210.883 99.3221 210.883 98.2426V76.6971ZM224.864 111.606V76.6971H250.024V84.3335H234.342V90.3335H248.728V97.9698H234.342V103.97H249.955V111.606H224.864ZM130.739 169.606V134.697H145.876C148.535 134.697 150.768 135.055 152.575 135.771C154.393 136.487 155.762 137.498 156.683 138.805C157.614 140.112 158.08 141.652 158.08 143.424C158.08 144.708 157.796 145.879 157.228 146.936C156.671 147.993 155.887 148.879 154.876 149.595C153.864 150.299 152.683 150.788 151.33 151.061V151.402C152.83 151.458 154.194 151.839 155.421 152.544C156.649 153.237 157.626 154.197 158.353 155.424C159.08 156.64 159.444 158.072 159.444 159.72C159.444 161.629 158.944 163.328 157.944 164.816C156.955 166.305 155.546 167.476 153.717 168.328C151.887 169.18 149.705 169.606 147.171 169.606H130.739ZM140.217 162.038H144.649C146.239 162.038 147.433 161.743 148.228 161.152C149.024 160.549 149.421 159.663 149.421 158.493C149.421 157.674 149.234 156.981 148.859 156.413C148.484 155.845 147.95 155.413 147.256 155.118C146.575 154.822 145.751 154.674 144.785 154.674H140.217V162.038ZM140.217 148.811H144.103C144.933 148.811 145.666 148.68 146.302 148.419C146.938 148.157 147.433 147.782 147.785 147.294C148.149 146.794 148.33 146.186 148.33 145.47C148.33 144.39 147.944 143.566 147.171 142.998C146.399 142.419 145.421 142.129 144.239 142.129H140.217V148.811ZM162.802 169.606V134.697H177.87C180.461 134.697 182.728 135.169 184.671 136.112C186.614 137.055 188.126 138.413 189.205 140.186C190.285 141.958 190.825 144.083 190.825 146.561C190.825 149.061 190.268 151.169 189.154 152.885C188.052 154.601 186.501 155.896 184.501 156.771C182.512 157.646 180.188 158.083 177.529 158.083H168.529V150.72H175.62C176.734 150.72 177.683 150.583 178.467 150.311C179.262 150.027 179.87 149.578 180.291 148.964C180.722 148.351 180.938 147.549 180.938 146.561C180.938 145.561 180.722 144.748 180.291 144.123C179.87 143.487 179.262 143.021 178.467 142.726C177.683 142.419 176.734 142.265 175.62 142.265H172.279V169.606H162.802ZM183.256 153.583L191.984 169.606H181.688L173.166 153.583H183.256ZM204.342 134.697V169.606H194.864V134.697H204.342ZM208.833 169.606V134.697H218.31V161.97H232.424V169.606H208.833ZM236.255 169.606V134.697H245.732V161.97H259.846V169.606H236.255ZM273.154 134.697V169.606H263.677V134.697H273.154ZM286.714 169.606H276.487L288.009 134.697H300.964L312.487 169.606H302.259L294.623 144.311H294.35L286.714 169.606ZM284.805 155.833H304.032V162.924H284.805V155.833ZM346.053 134.697V169.606H338.144L325.531 151.265H325.326V169.606H315.849V134.697H323.894L336.303 152.97H336.576V134.697H346.053ZM349.582 142.333V134.697H379.923V142.333H369.423V169.606H360.082V142.333H349.582Z" fill="#433E7B"/>
<path d="M132.78 108.576V73.6668H147.917C150.576 73.6668 152.809 74.0248 154.616 74.7407C156.434 75.4566 157.803 76.468 158.724 77.7748C159.655 79.0816 160.121 80.6214 160.121 82.3941C160.121 83.6782 159.837 84.8487 159.269 85.9055C158.712 86.9623 157.928 87.8487 156.917 88.5646C155.905 89.2691 154.724 89.7577 153.371 90.0305V90.3714C154.871 90.4282 156.235 90.8089 157.462 91.5134C158.689 92.2066 159.667 93.1668 160.394 94.3941C161.121 95.61 161.485 97.0418 161.485 98.6896C161.485 100.599 160.985 102.298 159.985 103.786C158.996 105.275 157.587 106.445 155.758 107.298C153.928 108.15 151.746 108.576 149.212 108.576H132.78ZM142.258 101.008H146.689C148.28 101.008 149.474 100.712 150.269 100.121C151.064 99.5191 151.462 98.6327 151.462 97.4623C151.462 96.6441 151.275 95.9509 150.9 95.3827C150.525 94.8146 149.991 94.3827 149.297 94.0873C148.616 93.7918 147.792 93.6441 146.826 93.6441H142.258V101.008ZM142.258 87.7805H146.144C146.974 87.7805 147.706 87.6498 148.343 87.3884C148.979 87.1271 149.474 86.7521 149.826 86.2634C150.189 85.7634 150.371 85.1555 150.371 84.4396C150.371 83.36 149.985 82.5362 149.212 81.968C148.439 81.3884 147.462 81.0987 146.28 81.0987H142.258V87.7805ZM164.843 108.576V73.6668H174.32V100.94H188.434V108.576H164.843ZM212.924 73.6668H222.401V96.0305C222.401 98.6896 221.765 100.991 220.492 102.934C219.231 104.866 217.469 106.36 215.208 107.417C212.947 108.462 210.322 108.985 207.333 108.985C204.322 108.985 201.685 108.462 199.424 107.417C197.162 106.36 195.401 104.866 194.14 102.934C192.89 100.991 192.265 98.6896 192.265 96.0305V73.6668H201.742V95.2123C201.742 96.2918 201.981 97.2577 202.458 98.11C202.935 98.9509 203.594 99.61 204.435 100.087C205.287 100.565 206.253 100.803 207.333 100.803C208.424 100.803 209.39 100.565 210.231 100.087C211.072 99.61 211.731 98.9509 212.208 98.11C212.685 97.2577 212.924 96.2918 212.924 95.2123V73.6668ZM226.905 108.576V73.6668H252.064V81.3032H236.383V87.3032H250.769V94.9396H236.383V100.94H251.996V108.576H226.905ZM132.78 166.576V131.667H147.917C150.576 131.667 152.809 132.025 154.616 132.741C156.434 133.457 157.803 134.468 158.724 135.775C159.655 137.082 160.121 138.621 160.121 140.394C160.121 141.678 159.837 142.849 159.269 143.905C158.712 144.962 157.928 145.849 156.917 146.565C155.905 147.269 154.724 147.758 153.371 148.03V148.371C154.871 148.428 156.235 148.809 157.462 149.513C158.689 150.207 159.667 151.167 160.394 152.394C161.121 153.61 161.485 155.042 161.485 156.69C161.485 158.599 160.985 160.298 159.985 161.786C158.996 163.275 157.587 164.445 155.758 165.298C153.928 166.15 151.746 166.576 149.212 166.576H132.78ZM142.258 159.008H146.689C148.28 159.008 149.474 158.712 150.269 158.121C151.064 157.519 151.462 156.633 151.462 155.462C151.462 154.644 151.275 153.951 150.9 153.383C150.525 152.815 149.991 152.383 149.297 152.087C148.616 151.792 147.792 151.644 146.826 151.644H142.258V159.008ZM142.258 145.78H146.144C146.974 145.78 147.706 145.65 148.343 145.388C148.979 145.127 149.474 144.752 149.826 144.263C150.189 143.763 150.371 143.155 150.371 142.44C150.371 141.36 149.985 140.536 149.212 139.968C148.439 139.388 147.462 139.099 146.28 139.099H142.258V145.78ZM164.843 166.576V131.667H179.911C182.502 131.667 184.769 132.138 186.712 133.082C188.655 134.025 190.167 135.383 191.246 137.155C192.326 138.928 192.866 141.053 192.866 143.53C192.866 146.03 192.309 148.138 191.195 149.854C190.093 151.57 188.542 152.866 186.542 153.741C184.553 154.616 182.229 155.053 179.57 155.053H170.57V147.69H177.661C178.775 147.69 179.724 147.553 180.508 147.28C181.303 146.996 181.911 146.548 182.331 145.934C182.763 145.32 182.979 144.519 182.979 143.53C182.979 142.53 182.763 141.718 182.331 141.093C181.911 140.457 181.303 139.991 180.508 139.695C179.724 139.388 178.775 139.235 177.661 139.235H174.32V166.576H164.843ZM185.297 150.553L194.025 166.576H183.729L175.206 150.553H185.297ZM206.383 131.667V166.576H196.905V131.667H206.383ZM210.874 166.576V131.667H220.351V158.94H234.465V166.576H210.874ZM238.296 166.576V131.667H247.773V158.94H261.887V166.576H238.296ZM275.195 131.667V166.576H265.718V131.667H275.195ZM288.755 166.576H278.527L290.05 131.667H303.005L314.527 166.576H304.3L296.664 141.28H296.391L288.755 166.576ZM286.846 152.803H306.073V159.894H286.846V152.803ZM348.094 131.667V166.576H340.185L327.572 148.235H327.367V166.576H317.89V131.667H325.935L338.344 149.94H338.617V131.667H348.094ZM351.623 139.303V131.667H381.964V139.303H371.464V166.576H362.123V139.303H351.623Z" fill="#EEEDFF"/>
<defs>
<filter id="filter0_d_2504_108" x="268.698" y="9.49951" width="189.199" height="117.535" filterUnits="userSpaceOnUse" color-interpolation-filters="sRGB">
<feFlood flood-opacity="0" result="BackgroundImageFix"/>
<feColorMatrix in="SourceAlpha" type="matrix" values="0 0 0 0 0 0 0 0 0 0 0 0 0 0 0 0 0 0 127 0" result="hardAlpha"/>
<feOffset dy="4"/>
<feGaussianBlur stdDeviation="2"/>
<feComposite in2="hardAlpha" operator="out"/>
<feColorMatrix type="matrix" values="0 0 0 0 0.133285 0 0 0 0 0.791988 0 0 0 0 1 0 0 0 0.25 0"/>
<feBlend mode="normal" in2="BackgroundImageFix" result="effect1_dropShadow_2504_108"/>
<feBlend mode="normal" in="SourceGraphic" in2="effect1_dropShadow_2504_108" result="shape"/>
</filter>
<filter id="filter1_i_2504_108" x="317.945" y="41.3091" width="32.6549" height="25.2092" filterUnits="userSpaceOnUse" color-interpolation-filters="sRGB">
<feFlood flood-opacity="0" result="BackgroundImageFix"/>
<feBlend mode="normal" in="SourceGraphic" in2="BackgroundImageFix" result="shape"/>
<feColorMatrix in="SourceAlpha" type="matrix" values="0 0 0 0 0 0 0 0 0 0 0 0 0 0 0 0 0 0 127 0" result="hardAlpha"/>
<feOffset dy="4"/>
<feGaussianBlur stdDeviation="2"/>
<feComposite in2="hardAlpha" operator="arithmetic" k2="-1" k3="1"/>
<feColorMatrix type="matrix" values="0 0 0 0 1 0 0 0 0 1 0 0 0 0 1 0 0 0 0.6 0"/>
<feBlend mode="normal" in2="shape" result="effect1_innerShadow_2504_108"/>
</filter>
<filter id="filter2_i_2504_108" x="383.255" y="41.3091" width="29.5935" height="23.1897" filterUnits="userSpaceOnUse" color-interpolation-filters="sRGB">
<feFlood flood-opacity="0" result="BackgroundImageFix"/>
<feBlend mode="normal" in="SourceGraphic" in2="BackgroundImageFix" result="shape"/>
<feColorMatrix in="SourceAlpha" type="matrix" values="0 0 0 0 0 0 0 0 0 0 0 0 0 0 0 0 0 0 127 0" result="hardAlpha"/>
<feOffset dy="4"/>
<feGaussianBlur stdDeviation="2"/>
<feComposite in2="hardAlpha" operator="arithmetic" k2="-1" k3="1"/>
<feColorMatrix type="matrix" values="0 0 0 0 0.933333 0 0 0 0 0.929412 0 0 0 0 1 0 0 0 1 0"/>
<feBlend mode="normal" in2="shape" result="effect1_innerShadow_2504_108"/>
</filter>
</defs>
</svg>
