<svg width="559" height="177" viewBox="0 0 559 177" fill="none" xmlns="http://www.w3.org/2000/svg">
<g filter="url(#filter0_i_2549_6)">
<path d="M94.5558 28.9671L23.4814 69.6016C10.315 77.8152 11.5211 81.4665 19.1924 87.4561L97.6193 133.016C109.136 139.799 115.023 139.477 124.579 133.016L199.329 87.4561C207.134 80.2876 207.778 76.3606 199.329 69.6016C199.329 69.6016 130.583 29.2188 122.128 25.8888C113.672 22.5587 103.401 24.9487 94.5558 28.9671Z" fill="#322B72" stroke="#322B72"/>
<path d="M94.5558 22.8102L23.4814 63.4446C10.315 71.6582 11.5211 75.3095 19.1924 81.2991L97.6193 126.859C109.136 133.642 115.023 133.32 124.579 126.859L199.329 81.2991C207.134 74.1307 207.778 70.2036 199.329 63.4446C199.329 63.4446 130.583 23.0619 122.128 19.7318C113.672 16.4017 103.401 18.7917 94.5558 22.8102Z" fill="#322B72" stroke="#322B72"/>
<path d="M94.5558 16.6534L23.4814 57.2879C10.315 65.5015 11.5211 69.1528 19.1924 75.1424L97.6193 120.702C109.136 127.486 115.023 127.164 124.579 120.702L199.329 75.1424C207.134 67.9739 207.778 64.0469 199.329 57.2879C199.329 57.2879 130.583 16.9051 122.128 13.5751C113.672 10.245 103.401 12.635 94.5558 16.6534Z" fill="#7B70F5" stroke="#554EA4"/>
<path d="M101.379 27.6407L50.1048 56.6925C41.1852 63.5594 42.1155 66.2767 47.0107 69.4577L103.589 102.031C111.897 106.881 116.144 106.651 123.037 102.031L176.963 69.4577C182.594 64.3326 183.058 61.5249 176.963 56.6925C176.963 56.6925 127.369 27.8207 121.269 25.4398C115.17 23.059 107.759 24.7677 101.379 27.6407Z" fill="#948DE7" stroke="#554EA4"/>
<path d="M153.167 40.4299L75.9763 88.0157" stroke="#7B70F5" stroke-width="5"/>
<path d="M154.479 87.2725L78.1258 36.3402" stroke="#7B70F5" stroke-width="5"/>
<g filter="url(#filter1_i_2549_6)">
<path d="M78.481 76.0298L56.3694 61.8516L65.3875 55.6925C66.9717 54.6105 68.5288 53.8473 70.0588 53.4028C71.5955 52.9538 73.0519 52.8074 74.4281 52.9636C75.811 53.1152 77.0639 53.551 78.1867 54.271C79.0001 54.7925 79.5722 55.3835 79.903 56.0439C80.2407 56.6997 80.335 57.3787 80.1859 58.081C80.0296 58.7787 79.635 59.4581 79.002 60.1191L79.218 60.2575C80.1476 59.6703 81.2012 59.27 82.3787 59.0568C83.5489 58.8389 84.7394 58.8312 85.95 59.0338C87.1535 59.2317 88.2771 59.6652 89.3208 60.3345C90.53 61.1098 91.3082 62.0033 91.6553 63.0148C92.0092 64.0217 91.911 65.0704 91.3608 66.161C90.8106 67.2516 89.7807 68.3125 88.2709 69.3436L78.481 76.0298ZM79.3337 69.0997L81.9741 67.2963C82.922 66.649 83.4457 66.0435 83.5454 65.4798C83.6378 64.9115 83.3133 64.3897 82.572 63.9143C82.0537 63.582 81.503 63.3768 80.9196 63.2986C80.3363 63.2204 79.7446 63.2624 79.1445 63.4244C78.5511 63.5819 77.9667 63.8571 77.3912 64.2501L74.6695 66.1089L79.3337 69.0997ZM70.9555 63.7274L73.2709 62.1461C73.7652 61.8085 74.1191 61.4572 74.3327 61.0921C74.5463 60.727 74.6033 60.3736 74.5036 60.0318C74.4036 59.6807 74.1268 59.3598 73.6734 59.0691C72.9896 58.6306 72.2375 58.4532 71.4173 58.5369C70.5898 58.6159 69.824 58.8959 69.1199 59.3768L66.7232 61.0136L70.9555 63.7274Z" fill="#7C70FF"/>
</g>
<g filter="url(#filter2_i_2549_6)">
<path d="M154.835 73.5673L135.4 61.1257L143.326 55.7211C144.719 54.7716 146.087 54.1019 147.432 53.7119C148.783 53.3178 150.063 53.1894 151.273 53.3264C152.488 53.4595 153.589 53.8419 154.576 54.4737C155.291 54.9313 155.794 55.4499 156.085 56.0295C156.382 56.6049 156.464 57.2008 156.333 57.8171C156.196 58.4293 155.849 59.0254 155.293 59.6055L155.483 59.727C156.3 59.2116 157.226 58.8604 158.261 58.6733C159.289 58.4821 160.336 58.4754 161.4 58.6531C162.458 58.8268 163.445 59.2072 164.363 59.7945C165.425 60.4749 166.109 61.2589 166.414 62.1465C166.726 63.03 166.639 63.9503 166.156 64.9073C165.672 65.8643 164.767 66.7953 163.44 67.7001L154.835 73.5673ZM155.584 67.486L157.905 65.9036C158.738 65.3355 159.199 64.8042 159.286 64.3096C159.367 63.8109 159.082 63.353 158.431 62.9358C157.975 62.6442 157.491 62.4641 156.978 62.3955C156.466 62.3269 155.946 62.3637 155.418 62.5059C154.897 62.6441 154.383 62.8856 153.877 63.2305L151.485 64.8616L155.584 67.486ZM148.22 62.7718L150.256 61.3842C150.69 61.088 151.001 60.7797 151.189 60.4593C151.376 60.1389 151.427 59.8288 151.339 59.5288C151.251 59.2208 151.008 58.9392 150.609 58.6841C150.008 58.2993 149.347 58.1436 148.626 58.2171C147.899 58.2864 147.226 58.5321 146.607 58.9541L144.5 60.3904L148.22 62.7718Z" fill="#7C70FF"/>
</g>
<rect width="35.1333" height="18.3445" rx="2.5" transform="matrix(0.856771 -0.51531 0.480748 0.877078 0.958496 100.426)" fill="#322B72"/>
<rect width="40.5566" height="5.38069" rx="2.5" transform="matrix(0.856771 -0.51531 0.480748 0.877078 1.68433 99.9731)" fill="#7B70F5"/>
<rect width="35.1334" height="18.3445" rx="2.5" transform="matrix(0.856773 -0.515306 0.480752 0.877076 15.6636 110.277)" fill="#322B72"/>
<rect width="40.5567" height="5.38068" rx="2.5" transform="matrix(0.856773 -0.515306 0.480752 0.877076 16.3894 109.824)" fill="#7B70F5"/>
<rect width="35.1334" height="18.3445" rx="2.5" transform="matrix(0.856773 -0.515306 0.480752 0.877076 34.0449 118.896)" fill="#322B72"/>
<rect width="40.5567" height="5.38068" rx="2.5" transform="matrix(0.856773 -0.515306 0.480752 0.877076 34.7708 118.443)" fill="#7B70F5"/>
<rect width="35.1334" height="18.3445" rx="2.5" transform="matrix(0.856773 -0.515306 0.480752 0.877076 51.2007 129.978)" fill="#322B72"/>
<rect width="40.5567" height="5.38068" rx="2.5" transform="matrix(0.856773 -0.515306 0.480752 0.877076 51.9265 129.525)" fill="#7B70F5"/>
<rect width="35.1338" height="18.3442" rx="2.5" transform="matrix(-0.897657 -0.439423 -0.403982 0.915352 220.586 93.988)" fill="#322B72"/>
<rect width="40.5571" height="5.38061" rx="2.5" transform="matrix(-0.897657 -0.439423 -0.403982 0.915352 219.824 93.5991)" fill="#7B70F5"/>
<rect width="35.1338" height="18.3442" rx="2.5" transform="matrix(-0.897657 -0.439423 -0.403982 0.915352 206.778 105.072)" fill="#322B72"/>
<rect width="40.5571" height="5.38061" rx="2.5" transform="matrix(-0.897657 -0.439423 -0.403982 0.915352 206.016 104.684)" fill="#7B70F5"/>
<rect width="35.1338" height="18.3442" rx="2.5" transform="matrix(-0.897657 -0.439423 -0.403982 0.915352 189.201 115.247)" fill="#322B72"/>
<rect width="40.5571" height="5.38061" rx="2.5" transform="matrix(-0.897657 -0.439423 -0.403982 0.915352 188.44 114.858)" fill="#7B70F5"/>
<rect width="35.1338" height="18.3442" rx="2.5" transform="matrix(-0.897657 -0.439423 -0.403982 0.915352 173.057 127.769)" fill="#322B72"/>
<rect width="40.5571" height="5.38061" rx="2.5" transform="matrix(-0.897657 -0.439423 -0.403982 0.915352 172.295 127.381)" fill="#7B70F5"/>
</g>
<path d="M210.05 20.05C210.05 23.5167 208.55 26.15 205.55 27.95C207.183 28.55 208.55 29.5833 209.65 31.05C210.75 32.5167 211.3 34.6 211.3 37.3C211.3 39.9667 210.3 42.0833 208.3 43.65C206.333 45.2167 203.5 46 199.8 46H188C187.433 46 186.967 45.8167 186.6 45.45C186.233 45.05 186.05 44.5333 186.05 43.9V11.9C186.05 11.5333 186.1 11.3 186.2 11.2C186.333 11.0667 186.583 11 186.95 11H198.35C206.15 11 210.05 14.0167 210.05 20.05ZM195.65 19.1V25.65H195.9C199.1 25.65 200.7 24.5833 200.7 22.45C200.7 21.2833 200.383 20.4333 199.75 19.9C199.15 19.3667 198.133 19.1 196.7 19.1H195.65ZM195.65 31.55V38.05H196.55C197.983 38.05 199.033 37.7833 199.7 37.25C200.367 36.7167 200.7 35.8667 200.7 34.7C200.7 33.5333 200.383 32.7167 199.75 32.25C199.15 31.7833 198.133 31.55 196.7 31.55H195.65ZM214.688 43.05V11.95C214.688 11.25 216.371 10.9 219.738 10.9C223.138 10.9 224.838 11.25 224.838 11.95V36.45H232.538C233.138 36.45 233.554 37.2333 233.788 38.8C233.888 39.5667 233.938 40.35 233.938 41.15C233.938 41.95 233.888 42.7667 233.788 43.6C233.521 45.2 233.088 46 232.488 46H217.088C216.354 46 215.771 45.7 215.338 45.1C214.904 44.5 214.688 43.8167 214.688 43.05ZM253.266 12C253.266 11.3333 255.066 11 258.666 11C262.299 11 264.116 11.3333 264.116 12V34.95C264.116 38.35 262.899 41.1333 260.466 43.3C258.033 45.4333 254.666 46.5 250.366 46.5C246.099 46.5 242.616 45.4 239.916 43.2C237.249 40.9667 235.916 37.9667 235.916 34.2V12.05C235.916 11.3833 237.716 11.05 241.316 11.05C244.949 11.05 246.766 11.3833 246.766 12.05V34.6C246.766 35.2667 247.116 35.8 247.816 36.2C248.549 36.6 249.316 36.8 250.116 36.8C250.916 36.8 251.633 36.6167 252.266 36.25C252.933 35.8833 253.266 35.3333 253.266 34.6V12ZM284.563 24.9C285.196 24.9 285.513 26.0667 285.513 28.4C285.513 29.1 285.429 29.9333 285.263 30.9C285.129 31.8333 284.863 32.3 284.463 32.3H278.113V37.3H287.313C287.879 37.3 288.263 38.0333 288.463 39.5C288.563 40.1333 288.613 40.8167 288.613 41.55C288.613 42.25 288.513 43.1667 288.313 44.3C288.113 45.4333 287.779 46 287.313 46H270.213C268.946 46 268.313 45.4833 268.313 44.45V12.3C268.313 11.4333 268.696 11 269.463 11H287.363C288.063 11 288.413 12.4833 288.413 15.45C288.413 18.3833 288.063 19.85 287.363 19.85H278.113V24.9H284.563ZM210.05 80.05C210.05 83.5167 208.55 86.15 205.55 87.95C207.183 88.55 208.55 89.5833 209.65 91.05C210.75 92.5167 211.3 94.6 211.3 97.3C211.3 99.9667 210.3 102.083 208.3 103.65C206.333 105.217 203.5 106 199.8 106H188C187.433 106 186.967 105.817 186.6 105.45C186.233 105.05 186.05 104.533 186.05 103.9V71.9C186.05 71.5333 186.1 71.3 186.2 71.2C186.333 71.0667 186.583 71 186.95 71H198.35C206.15 71 210.05 74.0167 210.05 80.05ZM195.65 79.1V85.65H195.9C199.1 85.65 200.7 84.5833 200.7 82.45C200.7 81.2833 200.383 80.4333 199.75 79.9C199.15 79.3667 198.133 79.1 196.7 79.1H195.65ZM195.65 91.55V98.05H196.55C197.983 98.05 199.033 97.7833 199.7 97.25C200.367 96.7167 200.7 95.8667 200.7 94.7C200.7 93.5333 200.383 92.7167 199.75 92.25C199.15 91.7833 198.133 91.55 196.7 91.55H195.65ZM224.738 105.3C224.738 105.833 223.154 106.1 219.988 106.1C216.788 106.1 215.188 105.85 215.188 105.35V72.75C215.188 71.5833 215.804 71 217.038 71H226.588C235.354 71 239.738 74.4167 239.738 81.25C239.738 83.3167 239.338 85.2 238.538 86.9C237.738 88.5667 236.604 89.9 235.138 90.9L241.438 101.4C241.171 102.2 240.304 103.117 238.838 104.15C236.838 105.583 235.188 106.3 233.888 106.3C232.588 106.3 231.621 105.833 230.988 104.9L226.288 93.95H224.738V105.3ZM224.738 79.85V87.35H224.988C228.154 87.35 229.738 86.0333 229.738 83.4C229.738 82.2 229.421 81.3167 228.788 80.75C228.188 80.15 227.188 79.85 225.788 79.85H224.738ZM247.98 97.4V79.6H244.43C243.863 79.6 243.463 78.8833 243.23 77.45C243.13 76.75 243.08 76.0333 243.08 75.3C243.08 74.5667 243.13 73.85 243.23 73.15C243.463 71.7167 243.863 71 244.43 71H261.23C261.796 71 262.18 71.7167 262.38 73.15C262.513 73.85 262.58 74.5667 262.58 75.3C262.58 76.0333 262.513 76.75 262.38 77.45C262.18 78.8833 261.796 79.6 261.23 79.6H257.88V97.4H261.38C261.946 97.4 262.346 98.1167 262.58 99.55C262.713 100.25 262.78 100.967 262.78 101.7C262.78 102.433 262.713 103.15 262.58 103.85C262.346 105.283 261.946 106 261.38 106H244.53C243.963 106 243.58 105.283 243.38 103.85C243.246 103.15 243.18 102.433 243.18 101.7C243.18 100.967 243.246 100.25 243.38 99.55C243.58 98.1167 243.963 97.4 244.53 97.4H247.98ZM265.615 103.05V71.95C265.615 71.25 267.299 70.9 270.665 70.9C274.065 70.9 275.765 71.25 275.765 71.95V96.45H283.465C284.065 96.45 284.482 97.2333 284.715 98.8C284.815 99.5667 284.865 100.35 284.865 101.15C284.865 101.95 284.815 102.767 284.715 103.6C284.449 105.2 284.015 106 283.415 106H268.015C267.282 106 266.699 105.7 266.265 105.1C265.832 104.5 265.615 103.817 265.615 103.05ZM287.344 103.05V71.95C287.344 71.25 289.027 70.9 292.394 70.9C295.794 70.9 297.494 71.25 297.494 71.95V96.45H305.194C305.794 96.45 306.21 97.2333 306.444 98.8C306.544 99.5667 306.594 100.35 306.594 101.15C306.594 101.95 306.544 102.767 306.444 103.6C306.177 105.2 305.744 106 305.144 106H289.744C289.01 106 288.427 105.7 287.994 105.1C287.56 104.5 287.344 103.817 287.344 103.05ZM312.872 97.4V79.6H309.322C308.756 79.6 308.356 78.8833 308.122 77.45C308.022 76.75 307.972 76.0333 307.972 75.3C307.972 74.5667 308.022 73.85 308.122 73.15C308.356 71.7167 308.756 71 309.322 71H326.122C326.689 71 327.072 71.7167 327.272 73.15C327.406 73.85 327.472 74.5667 327.472 75.3C327.472 76.0333 327.406 76.75 327.272 77.45C327.072 78.8833 326.689 79.6 326.122 79.6H322.772V97.4H326.272C326.839 97.4 327.239 98.1167 327.472 99.55C327.606 100.25 327.672 100.967 327.672 101.7C327.672 102.433 327.606 103.15 327.472 103.85C327.239 105.283 326.839 106 326.272 106H309.422C308.856 106 308.472 105.283 308.272 103.85C308.139 103.15 308.072 102.433 308.072 101.7C308.072 100.967 308.139 100.25 308.272 99.55C308.472 98.1167 308.856 97.4 309.422 97.4H312.872ZM354.508 106.1C351.608 106.1 350.041 105.633 349.808 104.7L348.158 98.25H340.208L338.758 104.45C338.558 105.483 336.958 106 333.958 106C332.358 106 331.174 105.917 330.408 105.75C329.641 105.55 329.258 105.4 329.258 105.3L338.108 71.45C338.108 71.1833 340.391 71.05 344.958 71.05C349.524 71.05 351.808 71.1833 351.808 71.45L360.458 105.35C360.458 105.583 359.691 105.767 358.158 105.9C356.624 106.033 355.408 106.1 354.508 106.1ZM341.458 91.9H346.708L344.458 81.55H344.158L341.458 91.9ZM391.171 104.9C391.171 105.6 389.605 105.95 386.471 105.95C383.338 105.95 381.638 105.7 381.371 105.2L373.021 89.6V105.15C373.021 105.75 371.471 106.05 368.371 106.05C365.305 106.05 363.771 105.75 363.771 105.15V71.7C363.771 71.2 365.088 70.95 367.721 70.95C368.755 70.95 369.955 71.05 371.321 71.25C372.721 71.4167 373.571 71.75 373.871 72.25L381.871 87.65V71.95C381.871 71.3167 383.421 71 386.521 71C389.621 71 391.171 71.3167 391.171 71.95V104.9ZM411.243 105.2C411.243 105.867 409.593 106.2 406.293 106.2C402.993 106.2 401.343 105.867 401.343 105.2V80.1H395.343C394.777 80.1 394.377 79.3333 394.143 77.8C394.043 77.0667 393.993 76.3167 393.993 75.55C393.993 74.7833 394.043 74.0333 394.143 73.3C394.377 71.7667 394.777 71 395.343 71H417.093C417.66 71 418.06 71.7667 418.293 73.3C418.393 74.0333 418.443 74.7833 418.443 75.55C418.443 76.3167 418.393 77.0667 418.293 77.8C418.06 79.3333 417.66 80.1 417.093 80.1H411.243V105.2Z" fill="#EEEDFF"/>
<defs>
<filter id="filter0_i_2549_6" x="1.84583" y="11.4998" width="217.948" height="137.631" filterUnits="userSpaceOnUse" color-interpolation-filters="sRGB">
<feFlood flood-opacity="0" result="BackgroundImageFix"/>
<feBlend mode="normal" in="SourceGraphic" in2="BackgroundImageFix" result="shape"/>
<feColorMatrix in="SourceAlpha" type="matrix" values="0 0 0 0 0 0 0 0 0 0 0 0 0 0 0 0 0 0 127 0" result="hardAlpha"/>
<feOffset dy="4"/>
<feGaussianBlur stdDeviation="2"/>
<feComposite in2="hardAlpha" operator="arithmetic" k2="-1" k3="1"/>
<feColorMatrix type="matrix" values="0 0 0 0 0 0 0 0 0 0 0 0 0 0 0 0 0 0 0.25 0"/>
<feBlend mode="normal" in2="shape" result="effect1_innerShadow_2549_6"/>
</filter>
<filter id="filter1_i_2549_6" x="56.3694" y="50.1716" width="39.2134" height="29.8584" filterUnits="userSpaceOnUse" color-interpolation-filters="sRGB">
<feFlood flood-opacity="0" result="BackgroundImageFix"/>
<feBlend mode="normal" in="SourceGraphic" in2="BackgroundImageFix" result="shape"/>
<feColorMatrix in="SourceAlpha" type="matrix" values="0 0 0 0 0 0 0 0 0 0 0 0 0 0 0 0 0 0 127 0" result="hardAlpha"/>
<feOffset dy="4"/>
<feGaussianBlur stdDeviation="2"/>
<feComposite in2="hardAlpha" operator="arithmetic" k2="-1" k3="1"/>
<feColorMatrix type="matrix" values="0 0 0 0 0.899886 0 0 0 0 0.969966 0 0 0 0 1 0 0 0 1 0"/>
<feBlend mode="normal" in2="shape" result="effect1_innerShadow_2549_6"/>
</filter>
<filter id="filter2_i_2549_6" x="134.796" y="50.1716" width="35.5372" height="27.3958" filterUnits="userSpaceOnUse" color-interpolation-filters="sRGB">
<feFlood flood-opacity="0" result="BackgroundImageFix"/>
<feBlend mode="normal" in="SourceGraphic" in2="BackgroundImageFix" result="shape"/>
<feColorMatrix in="SourceAlpha" type="matrix" values="0 0 0 0 0 0 0 0 0 0 0 0 0 0 0 0 0 0 127 0" result="hardAlpha"/>
<feOffset dy="4"/>
<feGaussianBlur stdDeviation="2"/>
<feComposite in2="hardAlpha" operator="arithmetic" k2="-1" k3="1"/>
<feColorMatrix type="matrix" values="0 0 0 0 1 0 0 0 0 1 0 0 0 0 1 0 0 0 1 0"/>
<feBlend mode="normal" in2="shape" result="effect1_innerShadow_2549_6"/>
</filter>
</defs>
</svg>
