<svg width="503" height="200" viewBox="0 0 503 200" fill="none" xmlns="http://www.w3.org/2000/svg">
<ellipse cx="335.333" cy="125.254" rx="74.743" ry="74.7457" transform="rotate(-180 335.333 125.254)" fill="#4B458B"/>
<rect x="335.333" y="200" width="198.978" height="149.491" transform="rotate(-180 335.333 200)" fill="#4B458B"/>
<path d="M135.85 200L18.2005 50.7612L253.5 50.7612L135.85 200Z" fill="#4B458B"/>
<ellipse cx="350.459" cy="124.836" rx="76.7876" ry="75.1045" transform="rotate(-180 350.459 124.836)" fill="#7B70F8"/>
<rect x="350.459" y="199.94" width="204.421" height="150.209" transform="rotate(-180 350.459 199.94)" fill="#7B70F8"/>
<path d="M145.519 199.94L24.6511 49.985L266.388 49.985L145.519 199.94Z" fill="#7B70F8"/>
<path d="M134.565 106.896V71.9864H149.702C152.361 71.9864 154.594 72.3444 156.401 73.0603C158.219 73.7762 159.588 74.7876 160.508 76.0944C161.44 77.4012 161.906 78.941 161.906 80.7137C161.906 81.9978 161.622 83.1682 161.054 84.2251C160.497 85.2819 159.713 86.1682 158.702 86.8841C157.69 87.5887 156.508 88.0773 155.156 88.3501V88.691C156.656 88.7478 158.02 89.1285 159.247 89.833C160.474 90.5262 161.452 91.4864 162.179 92.7137C162.906 93.9296 163.27 95.3614 163.27 97.0091C163.27 98.9182 162.77 100.617 161.77 102.106C160.781 103.594 159.372 104.765 157.543 105.617C155.713 106.469 153.531 106.896 150.997 106.896H134.565ZM144.043 99.3273H148.474C150.065 99.3273 151.258 99.0319 152.054 98.441C152.849 97.8387 153.247 96.9523 153.247 95.7819C153.247 94.9637 153.06 94.2705 152.685 93.7023C152.31 93.1341 151.776 92.7023 151.082 92.4069C150.401 92.1114 149.577 91.9637 148.611 91.9637H144.043V99.3273ZM144.043 86.1001H147.929C148.758 86.1001 149.491 85.9694 150.128 85.708C150.764 85.4466 151.258 85.0716 151.611 84.583C151.974 84.083 152.156 83.4751 152.156 82.7591C152.156 81.6796 151.77 80.8557 150.997 80.2876C150.224 79.708 149.247 79.4182 148.065 79.4182H144.043V86.1001ZM166.628 106.896V71.9864H176.105V99.2591H190.219V106.896H166.628ZM214.709 71.9864H224.186V94.3501C224.186 97.0091 223.55 99.3103 222.277 101.253C221.016 103.185 219.254 104.68 216.993 105.736C214.732 106.782 212.107 107.305 209.118 107.305C206.107 107.305 203.47 106.782 201.209 105.736C198.947 104.68 197.186 103.185 195.925 101.253C194.675 99.3103 194.05 97.0091 194.05 94.3501V71.9864H203.527V93.5319C203.527 94.6114 203.766 95.5773 204.243 96.4296C204.72 97.2705 205.379 97.9296 206.22 98.4069C207.072 98.8841 208.038 99.1228 209.118 99.1228C210.209 99.1228 211.175 98.8841 212.016 98.4069C212.857 97.9296 213.516 97.2705 213.993 96.4296C214.47 95.5773 214.709 94.6114 214.709 93.5319V71.9864ZM228.69 106.896V71.9864H253.849V79.6228H238.168V85.6228H252.554V93.2591H238.168V99.2591H253.781V106.896H228.69ZM134.565 164.896V129.986H149.702C152.361 129.986 154.594 130.344 156.401 131.06C158.219 131.776 159.588 132.788 160.508 134.094C161.44 135.401 161.906 136.941 161.906 138.714C161.906 139.998 161.622 141.168 161.054 142.225C160.497 143.282 159.713 144.168 158.702 144.884C157.69 145.589 156.508 146.077 155.156 146.35V146.691C156.656 146.748 158.02 147.128 159.247 147.833C160.474 148.526 161.452 149.486 162.179 150.714C162.906 151.93 163.27 153.361 163.27 155.009C163.27 156.918 162.77 158.617 161.77 160.106C160.781 161.594 159.372 162.765 157.543 163.617C155.713 164.469 153.531 164.896 150.997 164.896H134.565ZM144.043 157.327H148.474C150.065 157.327 151.258 157.032 152.054 156.441C152.849 155.839 153.247 154.952 153.247 153.782C153.247 152.964 153.06 152.271 152.685 151.702C152.31 151.134 151.776 150.702 151.082 150.407C150.401 150.111 149.577 149.964 148.611 149.964H144.043V157.327ZM144.043 144.1H147.929C148.758 144.1 149.491 143.969 150.128 143.708C150.764 143.447 151.258 143.072 151.611 142.583C151.974 142.083 152.156 141.475 152.156 140.759C152.156 139.68 151.77 138.856 150.997 138.288C150.224 137.708 149.247 137.418 148.065 137.418H144.043V144.1ZM166.628 164.896V129.986H181.696C184.287 129.986 186.554 130.458 188.497 131.401C190.44 132.344 191.952 133.702 193.031 135.475C194.111 137.248 194.651 139.373 194.651 141.85C194.651 144.35 194.094 146.458 192.98 148.174C191.878 149.89 190.327 151.185 188.327 152.06C186.338 152.935 184.014 153.373 181.355 153.373H172.355V146.009H179.446C180.56 146.009 181.508 145.873 182.293 145.6C183.088 145.316 183.696 144.867 184.116 144.253C184.548 143.64 184.764 142.839 184.764 141.85C184.764 140.85 184.548 140.038 184.116 139.413C183.696 138.776 183.088 138.31 182.293 138.015C181.508 137.708 180.56 137.555 179.446 137.555H176.105V164.896H166.628ZM187.082 148.873L195.81 164.896H185.514L176.991 148.873H187.082ZM208.168 129.986V164.896H198.69V129.986H208.168ZM212.659 164.896V129.986H222.136V157.259H236.25V164.896H212.659ZM240.081 164.896V129.986H249.558V157.259H263.672V164.896H240.081ZM276.98 129.986V164.896H267.503V129.986H276.98ZM290.54 164.896H280.312L291.835 129.986H304.79L316.312 164.896H306.085L298.449 139.6H298.176L290.54 164.896ZM288.631 151.123H307.858V158.214H288.631V151.123ZM349.879 129.986V164.896H341.97L329.357 146.555H329.152V164.896H319.675V129.986H327.72L340.129 148.259H340.402V129.986H349.879ZM353.408 137.623V129.986H383.749V137.623H373.249V164.896H363.908V137.623H353.408Z" fill="#4B458B"/>
<path d="M136.585 103.851V68.9417H151.722C154.381 68.9417 156.614 69.2997 158.421 70.0156C160.239 70.7315 161.608 71.7429 162.529 73.0497C163.46 74.3565 163.926 75.8963 163.926 77.669C163.926 78.9531 163.642 80.1236 163.074 81.1804C162.517 82.2372 161.733 83.1236 160.722 83.8395C159.71 84.544 158.529 85.0326 157.176 85.3054V85.6463C158.676 85.7031 160.04 86.0838 161.267 86.7883C162.495 87.4815 163.472 88.4417 164.199 89.669C164.926 90.8849 165.29 92.3167 165.29 93.9645C165.29 95.8736 164.79 97.5724 163.79 99.0611C162.801 100.55 161.392 101.72 159.563 102.572C157.733 103.425 155.551 103.851 153.017 103.851H136.585ZM146.063 96.2826H150.495C152.085 96.2826 153.279 95.9872 154.074 95.3963C154.87 94.794 155.267 93.9076 155.267 92.7372C155.267 91.919 155.08 91.2258 154.705 90.6576C154.33 90.0895 153.796 89.6576 153.102 89.3622C152.421 89.0667 151.597 88.919 150.631 88.919H146.063V96.2826ZM146.063 83.0554H149.949C150.779 83.0554 151.512 82.9247 152.148 82.6633C152.784 82.402 153.279 82.027 153.631 81.5383C153.995 81.0383 154.176 80.4304 154.176 79.7145C154.176 78.6349 153.79 77.8111 153.017 77.2429C152.245 76.6633 151.267 76.3736 150.085 76.3736H146.063V83.0554ZM168.648 103.851V68.9417H178.125V96.2145H192.239V103.851H168.648ZM216.729 68.9417H226.206V91.3054C226.206 93.9645 225.57 96.2656 224.297 98.2088C223.036 100.141 221.274 101.635 219.013 102.692C216.752 103.737 214.127 104.26 211.138 104.26C208.127 104.26 205.49 103.737 203.229 102.692C200.968 101.635 199.206 100.141 197.945 98.2088C196.695 96.2656 196.07 93.9645 196.07 91.3054V68.9417H205.547V90.4872C205.547 91.5667 205.786 92.5326 206.263 93.3849C206.74 94.2258 207.399 94.8849 208.24 95.3622C209.093 95.8395 210.058 96.0781 211.138 96.0781C212.229 96.0781 213.195 95.8395 214.036 95.3622C214.877 94.8849 215.536 94.2258 216.013 93.3849C216.49 92.5326 216.729 91.5667 216.729 90.4872V68.9417ZM230.71 103.851V68.9417H255.87V76.5781H240.188V82.5781H254.574V90.2145H240.188V96.2145H255.801V103.851H230.71ZM136.585 161.851V126.942H151.722C154.381 126.942 156.614 127.3 158.421 128.016C160.239 128.732 161.608 129.743 162.529 131.05C163.46 132.357 163.926 133.896 163.926 135.669C163.926 136.953 163.642 138.124 163.074 139.18C162.517 140.237 161.733 141.124 160.722 141.839C159.71 142.544 158.529 143.033 157.176 143.305V143.646C158.676 143.703 160.04 144.084 161.267 144.788C162.495 145.482 163.472 146.442 164.199 147.669C164.926 148.885 165.29 150.317 165.29 151.964C165.29 153.874 164.79 155.572 163.79 157.061C162.801 158.55 161.392 159.72 159.563 160.572C157.733 161.425 155.551 161.851 153.017 161.851H136.585ZM146.063 154.283H150.495C152.085 154.283 153.279 153.987 154.074 153.396C154.87 152.794 155.267 151.908 155.267 150.737C155.267 149.919 155.08 149.226 154.705 148.658C154.33 148.089 153.796 147.658 153.102 147.362C152.421 147.067 151.597 146.919 150.631 146.919H146.063V154.283ZM146.063 141.055H149.949C150.779 141.055 151.512 140.925 152.148 140.663C152.784 140.402 153.279 140.027 153.631 139.538C153.995 139.038 154.176 138.43 154.176 137.714C154.176 136.635 153.79 135.811 153.017 135.243C152.245 134.663 151.267 134.374 150.085 134.374H146.063V141.055ZM168.648 161.851V126.942H183.716C186.307 126.942 188.574 127.413 190.517 128.357C192.46 129.3 193.972 130.658 195.051 132.43C196.131 134.203 196.671 136.328 196.671 138.805C196.671 141.305 196.114 143.413 195 145.129C193.898 146.845 192.347 148.141 190.347 149.016C188.358 149.891 186.034 150.328 183.375 150.328H174.375V142.964H181.466C182.58 142.964 183.529 142.828 184.313 142.555C185.108 142.271 185.716 141.822 186.137 141.209C186.568 140.595 186.784 139.794 186.784 138.805C186.784 137.805 186.568 136.993 186.137 136.368C185.716 135.732 185.108 135.266 184.313 134.97C183.529 134.663 182.58 134.51 181.466 134.51H178.125V161.851H168.648ZM189.102 145.828L197.83 161.851H187.534L179.012 145.828H189.102ZM210.188 126.942V161.851H200.71V126.942H210.188ZM214.679 161.851V126.942H224.156V154.214H238.27V161.851H214.679ZM242.101 161.851V126.942H251.578V154.214H265.692V161.851H242.101ZM279 126.942V161.851H269.523V126.942H279ZM292.56 161.851H282.333L293.855 126.942H306.81L318.333 161.851H308.105L300.469 136.555H300.196L292.56 161.851ZM290.651 148.078H309.878V155.169H290.651V148.078ZM351.899 126.942V161.851H343.99L331.377 143.51H331.172V161.851H321.695V126.942H329.74L342.149 145.214H342.422V126.942H351.899ZM355.428 134.578V126.942H385.769V134.578H375.269V161.851H365.928V134.578H355.428Z" fill="#EEEDFF"/>
<g filter="url(#filter0_d_2541_6)">
<path d="M349.775 24.1341L291.193 57.6266C280.34 64.3966 281.334 67.4062 287.657 72.343L352.3 109.895C361.792 115.487 366.645 115.221 374.521 109.895L436.133 72.343C442.566 66.4345 443.097 63.1977 436.133 57.6266C436.133 57.6266 379.47 24.3416 372.501 21.5968C365.532 18.852 357.065 20.8219 349.775 24.1341Z" fill="#4B458B" stroke="#4B458B"/>
<path d="M349.775 19.0594L291.193 52.5519C280.34 59.3219 281.334 62.3315 287.657 67.2683L352.3 104.821C361.792 110.412 366.645 110.146 374.521 104.821L436.133 67.2683C442.566 61.3598 443.097 58.123 436.133 52.5519C436.133 52.5519 379.47 19.2669 372.501 16.5221C365.532 13.7773 357.065 15.7472 349.775 19.0594Z" fill="#4B458B" stroke="#4B458B"/>
<path d="M349.775 13.9847L291.193 47.4772C280.34 54.2472 281.334 57.2568 287.657 62.1936L352.3 99.7459C361.792 105.337 366.645 105.072 374.521 99.7459L436.133 62.1936C442.566 56.2851 443.097 53.0483 436.133 47.4772C436.133 47.4772 379.47 14.1922 372.501 11.4474C365.532 8.70263 357.065 10.6725 349.775 13.9847Z" fill="#837DC3" stroke="#837DC3"/>
<path d="M355.399 23.0408L313.137 46.9865C305.785 52.6465 306.552 54.8862 310.586 57.5081L357.22 84.3563C364.068 88.3538 367.569 88.1639 373.251 84.3563L417.699 57.5081C422.339 53.2837 422.722 50.9695 417.699 46.9865C417.699 46.9865 376.821 23.1892 371.793 21.2268C366.766 19.2644 360.658 20.6728 355.399 23.0408Z" fill="#948DE7" stroke="#837DC3"/>
<path d="M398.085 33.5823L334.461 72.8044" stroke="#837DC3" stroke-width="5"/>
<path d="M400.861 73.3706L336.233 30.2115" stroke="#837DC3" stroke-width="5"/>
<g filter="url(#filter1_i_2541_6)">
<path d="M336.525 62.9253L318.3 51.239L325.733 46.1625C327.039 45.2706 328.322 44.6416 329.583 44.2752C330.85 43.9051 332.051 43.7844 333.185 43.9132C334.325 44.0381 335.357 44.3973 336.283 44.9908C336.953 45.4207 337.425 45.9078 337.697 46.4521C337.976 46.9926 338.053 47.5523 337.931 48.1312C337.802 48.7062 337.477 49.2662 336.955 49.811L337.133 49.9252C337.899 49.4411 338.767 49.1112 339.738 48.9354C340.703 48.7559 341.684 48.7496 342.682 48.9165C343.674 49.0796 344.6 49.437 345.46 49.9886C346.457 50.6277 347.098 51.3641 347.384 52.1978C347.676 53.0277 347.595 53.8921 347.141 54.791C346.688 55.69 345.839 56.5644 344.595 57.4143L336.525 62.9253ZM337.228 57.2132L339.405 55.7268C340.186 55.1932 340.618 54.6942 340.7 54.2296C340.776 53.7612 340.508 53.331 339.897 52.9392C339.47 52.6653 339.016 52.4961 338.535 52.4317C338.055 52.3673 337.567 52.4018 337.072 52.5354C336.583 52.6652 336.101 52.892 335.627 53.216L333.384 54.7481L337.228 57.2132ZM330.323 52.7852L332.231 51.4817C332.638 51.2035 332.93 50.914 333.106 50.613C333.282 50.3121 333.329 50.0208 333.247 49.7391C333.165 49.4497 332.936 49.1852 332.563 48.9456C331.999 48.5842 331.379 48.4379 330.703 48.5069C330.021 48.5721 329.39 48.8028 328.81 49.1992L326.834 50.5484L330.323 52.7852Z" fill="#B3ADF7"/>
</g>
<g filter="url(#filter2_i_2541_6)">
<path d="M399.459 60.8954L383.44 50.6406L389.973 46.1859C391.121 45.4033 392.249 44.8513 393.358 44.5299C394.471 44.2051 395.526 44.0992 396.523 44.2121C397.525 44.3218 398.433 44.637 399.246 45.1577C399.835 45.535 400.25 45.9624 400.49 46.4401C400.734 46.9144 400.802 47.4055 400.694 47.9135C400.581 48.4181 400.295 48.9095 399.837 49.3876L399.993 49.4877C400.667 49.0629 401.43 48.7734 402.283 48.6192C403.131 48.4616 403.993 48.4561 404.87 48.6026C405.742 48.7457 406.556 49.0593 407.312 49.5433C408.188 50.1042 408.752 50.7504 409.004 51.482C409.26 52.2102 409.189 52.9688 408.79 53.7576C408.392 54.5464 407.646 55.3137 406.552 56.0595L399.459 60.8954ZM400.077 55.883L401.99 54.5787C402.677 54.1105 403.056 53.6725 403.128 53.2649C403.195 52.8538 402.96 52.4764 402.423 52.1326C402.048 51.8922 401.649 51.7438 401.226 51.6872C400.803 51.6307 400.375 51.661 399.94 51.7782C399.51 51.8921 399.087 52.0912 398.67 52.3755L396.698 53.7199L400.077 55.883ZM394.007 51.9974L395.685 50.8536C396.043 50.6095 396.299 50.3554 396.454 50.0913C396.609 49.8273 396.65 49.5716 396.578 49.3244C396.505 49.0705 396.305 48.8384 395.976 48.6281C395.481 48.311 394.936 48.1827 394.342 48.2432C393.742 48.3003 393.188 48.5028 392.677 48.8507L390.941 50.0346L394.007 51.9974Z" fill="#B3ADF7"/>
</g>
<rect width="28.9583" height="15.1203" rx="2.5" transform="matrix(0.856773 -0.515306 0.480752 0.877076 272.628 83.0334)" fill="#4B458B"/>
<rect width="33.4284" height="4.43497" rx="2.21748" transform="matrix(0.856773 -0.515306 0.480752 0.877076 273.227 82.6604)" fill="#837DC3"/>
<rect width="28.9583" height="15.1203" rx="2.5" transform="matrix(0.856773 -0.515306 0.480752 0.877076 284.749 91.1531)" fill="#4B458B"/>
<rect width="33.4284" height="4.43497" rx="2.21748" transform="matrix(0.856773 -0.515306 0.480752 0.877076 285.347 90.7798)" fill="#837DC3"/>
<rect width="28.9583" height="15.1203" rx="2.5" transform="matrix(0.856773 -0.515306 0.480752 0.877076 299.899 98.2573)" fill="#4B458B"/>
<rect width="33.4284" height="4.43497" rx="2.21748" transform="matrix(0.856773 -0.515306 0.480752 0.877076 300.498 97.8843)" fill="#837DC3"/>
<rect width="28.9583" height="15.1203" rx="2.5" transform="matrix(0.856773 -0.515306 0.480752 0.877076 314.04 107.392)" fill="#4B458B"/>
<rect width="33.4284" height="4.43497" rx="2.21748" transform="matrix(0.856773 -0.515306 0.480752 0.877076 314.638 107.019)" fill="#837DC3"/>
<rect width="28.9587" height="15.1201" rx="2.5" transform="matrix(-0.897657 -0.439423 -0.403982 0.915352 453.654 77.7271)" fill="#4B458B"/>
<rect width="33.4288" height="4.43491" rx="2.21745" transform="matrix(-0.897657 -0.439423 -0.403982 0.915352 453.026 77.4067)" fill="#837DC3"/>
<rect width="28.9587" height="15.1201" rx="2.5" transform="matrix(-0.897657 -0.439423 -0.403982 0.915352 442.273 86.863)" fill="#4B458B"/>
<rect width="33.4288" height="4.43491" rx="2.21745" transform="matrix(-0.897657 -0.439423 -0.403982 0.915352 441.645 86.5427)" fill="#837DC3"/>
<rect width="28.9587" height="15.1201" rx="2.5" transform="matrix(-0.897657 -0.439423 -0.403982 0.915352 427.786 95.2493)" fill="#4B458B"/>
<rect width="33.4288" height="4.43491" rx="2.21745" transform="matrix(-0.897657 -0.439423 -0.403982 0.915352 427.158 94.929)" fill="#837DC3"/>
<rect width="28.9587" height="15.1201" rx="2.5" transform="matrix(-0.897657 -0.439423 -0.403982 0.915352 414.478 105.571)" fill="#4B458B"/>
<rect width="33.4288" height="4.43491" rx="2.21745" transform="matrix(-0.897657 -0.439423 -0.403982 0.915352 413.85 105.25)" fill="#837DC3"/>
</g>
<g filter="url(#filter3_i_2541_6)">
<path d="M349.775 23.1192L291.193 56.6117C280.34 63.3817 281.334 66.3913 287.657 71.3281L352.3 108.88C361.792 114.472 366.645 114.206 374.521 108.88L436.133 71.3281C442.566 65.4196 443.097 62.1828 436.133 56.6117C436.133 56.6117 379.47 23.3267 372.501 20.5819C365.532 17.8371 357.065 19.807 349.775 23.1192Z" fill="#4B458B" stroke="#4B458B"/>
<path d="M349.775 18.0445L291.193 51.537C280.34 58.307 281.334 61.3166 287.657 66.2535L352.3 103.806C361.792 109.397 366.645 109.131 374.521 103.806L436.133 66.2535C442.566 60.3449 443.097 57.1081 436.133 51.537C436.133 51.537 379.47 18.252 372.501 15.5072C365.532 12.7624 357.065 14.7323 349.775 18.0445Z" fill="#4B458B" stroke="#4B458B"/>
<path d="M349.775 12.9698L291.193 46.4623C280.34 53.2323 281.334 56.2419 287.657 61.1787L352.3 98.731C361.792 104.322 366.645 104.057 374.521 98.731L436.133 61.1787C442.566 55.2702 443.097 52.0334 436.133 46.4623C436.133 46.4623 379.47 13.1773 372.501 10.4325C365.532 7.68774 357.065 9.65764 349.775 12.9698Z" fill="#837DC3" stroke="#837DC3"/>
<path d="M355.399 22.0259L313.137 45.9716C305.785 51.6316 306.552 53.8713 310.586 56.4932L357.22 83.3414C364.068 87.3389 367.569 87.1491 373.251 83.3414L417.699 56.4932C422.339 52.2688 422.722 49.9547 417.699 45.9716C417.699 45.9716 376.821 22.1743 371.793 20.2119C366.766 18.2495 360.658 19.6579 355.399 22.0259Z" fill="#948DE7" stroke="#837DC3"/>
<path d="M398.085 32.5674L334.461 71.7895" stroke="#837DC3" stroke-width="5"/>
<path d="M400.861 72.3557L336.233 29.1966" stroke="#837DC3" stroke-width="5"/>
<g filter="url(#filter4_i_2541_6)">
<path d="M336.525 61.9104L318.3 50.2241L325.733 45.1476C327.039 44.2557 328.322 43.6267 329.583 43.2603C330.85 42.8902 332.051 42.7695 333.185 42.8983C334.325 43.0232 335.357 43.3824 336.283 43.9759C336.953 44.4058 337.425 44.8929 337.697 45.4372C337.976 45.9777 338.053 46.5374 337.931 47.1163C337.802 47.6914 337.477 48.2513 336.955 48.7961L337.133 48.9103C337.899 48.4262 338.767 48.0963 339.738 47.9205C340.703 47.741 341.684 47.7347 342.682 47.9016C343.674 48.0647 344.6 48.4221 345.46 48.9737C346.457 49.6128 347.098 50.3492 347.384 51.1829C347.676 52.0128 347.595 52.8772 347.141 53.7762C346.688 54.6751 345.839 55.5495 344.595 56.3994L336.525 61.9104ZM337.228 56.1983L339.405 54.7119C340.186 54.1784 340.618 53.6793 340.7 53.2147C340.776 52.7463 340.508 52.3161 339.897 51.9243C339.47 51.6504 339.016 51.4813 338.535 51.4168C338.055 51.3524 337.567 51.387 337.072 51.5205C336.583 51.6503 336.101 51.8772 335.627 52.2011L333.384 53.7332L337.228 56.1983ZM330.323 51.7703L332.231 50.4669C332.638 50.1886 332.93 49.8991 333.106 49.5981C333.282 49.2972 333.329 49.0059 333.247 48.7242C333.165 48.4348 332.936 48.1703 332.563 47.9307C331.999 47.5693 331.379 47.4231 330.703 47.492C330.021 47.5572 329.39 47.7879 328.81 48.1843L326.834 49.5335L330.323 51.7703Z" fill="#B3ADF7"/>
</g>
<g filter="url(#filter5_i_2541_6)">
<path d="M399.459 59.8806L383.44 49.6257L389.973 45.171C391.121 44.3884 392.249 43.8364 393.358 43.515C394.471 43.1902 395.526 43.0843 396.523 43.1973C397.525 43.3069 398.433 43.6221 399.246 44.1429C399.835 44.5201 400.25 44.9475 400.49 45.4252C400.734 45.8995 400.802 46.3906 400.694 46.8986C400.581 47.4032 400.295 47.8946 399.837 48.3727L399.993 48.4728C400.667 48.048 401.43 47.7585 402.283 47.6043C403.131 47.4467 403.993 47.4412 404.87 47.5877C405.742 47.7308 406.556 48.0444 407.312 48.5284C408.188 49.0893 408.752 49.7355 409.004 50.4671C409.26 51.1953 409.189 51.9539 408.79 52.7427C408.392 53.5315 407.646 54.2988 406.552 55.0446L399.459 59.8806ZM400.077 54.8681L401.99 53.5638C402.677 53.0956 403.056 52.6577 403.128 52.25C403.195 51.8389 402.96 51.4615 402.423 51.1177C402.048 50.8773 401.649 50.7289 401.226 50.6723C400.803 50.6158 400.375 50.6461 399.94 50.7633C399.51 50.8772 399.087 51.0763 398.67 51.3606L396.698 52.705L400.077 54.8681ZM394.007 50.9825L395.685 49.8387C396.043 49.5946 396.299 49.3405 396.454 49.0764C396.609 48.8124 396.65 48.5567 396.578 48.3095C396.505 48.0556 396.305 47.8235 395.976 47.6132C395.481 47.2961 394.936 47.1678 394.342 47.2283C393.742 47.2855 393.188 47.4879 392.677 47.8358L390.941 49.0197L394.007 50.9825Z" fill="#B3ADF7"/>
</g>
<rect width="28.9583" height="15.1203" rx="2.5" transform="matrix(0.856771 -0.51531 0.480748 0.877078 272.628 82.0183)" fill="#4B458B"/>
<rect width="33.4283" height="4.43498" rx="2.21749" transform="matrix(0.856771 -0.51531 0.480748 0.877078 273.227 81.6453)" fill="#837DC3"/>
<rect width="28.9583" height="15.1203" rx="2.5" transform="matrix(0.856773 -0.515306 0.480752 0.877076 284.749 90.1379)" fill="#4B458B"/>
<rect width="33.4284" height="4.43497" rx="2.21748" transform="matrix(0.856773 -0.515306 0.480752 0.877076 285.347 89.7649)" fill="#837DC3"/>
<rect width="28.9583" height="15.1203" rx="2.5" transform="matrix(0.856773 -0.515306 0.480752 0.877076 299.899 97.2424)" fill="#4B458B"/>
<rect width="33.4284" height="4.43497" rx="2.21748" transform="matrix(0.856773 -0.515306 0.480752 0.877076 300.498 96.8694)" fill="#837DC3"/>
<rect width="28.9583" height="15.1203" rx="2.5" transform="matrix(0.856773 -0.515306 0.480752 0.877076 314.04 106.377)" fill="#4B458B"/>
<rect width="33.4284" height="4.43497" rx="2.21748" transform="matrix(0.856773 -0.515306 0.480752 0.877076 314.638 106.004)" fill="#837DC3"/>
<rect width="28.9587" height="15.1201" rx="2.5" transform="matrix(-0.897657 -0.439423 -0.403982 0.915352 453.654 76.7122)" fill="#4B458B"/>
<rect width="33.4288" height="4.43491" rx="2.21745" transform="matrix(-0.897657 -0.439423 -0.403982 0.915352 453.026 76.3916)" fill="#837DC3"/>
<rect width="28.9587" height="15.1201" rx="2.5" transform="matrix(-0.897657 -0.439423 -0.403982 0.915352 442.273 85.8481)" fill="#4B458B"/>
<rect width="33.4288" height="4.43491" rx="2.21745" transform="matrix(-0.897657 -0.439423 -0.403982 0.915352 441.645 85.5278)" fill="#837DC3"/>
<rect width="28.9587" height="15.1201" rx="2.5" transform="matrix(-0.897657 -0.439423 -0.403982 0.915352 427.786 94.2344)" fill="#4B458B"/>
<rect width="33.4288" height="4.43491" rx="2.21745" transform="matrix(-0.897657 -0.439423 -0.403982 0.915352 427.158 93.9141)" fill="#837DC3"/>
<rect width="28.9587" height="15.1201" rx="2.5" transform="matrix(-0.897657 -0.439423 -0.403982 0.915352 414.478 104.556)" fill="#4B458B"/>
<rect width="33.4288" height="4.43491" rx="2.21745" transform="matrix(-0.897657 -0.439423 -0.403982 0.915352 413.85 104.236)" fill="#837DC3"/>
</g>
<path d="M134.565 106.896V71.9864H149.702C152.361 71.9864 154.594 72.3444 156.401 73.0603C158.219 73.7762 159.588 74.7876 160.508 76.0944C161.44 77.4012 161.906 78.941 161.906 80.7137C161.906 81.9978 161.622 83.1682 161.054 84.2251C160.497 85.2819 159.713 86.1682 158.702 86.8841C157.69 87.5887 156.508 88.0773 155.156 88.3501V88.691C156.656 88.7478 158.02 89.1285 159.247 89.833C160.474 90.5262 161.452 91.4864 162.179 92.7137C162.906 93.9296 163.27 95.3614 163.27 97.0091C163.27 98.9182 162.77 100.617 161.77 102.106C160.781 103.594 159.372 104.765 157.543 105.617C155.713 106.469 153.531 106.896 150.997 106.896H134.565ZM144.043 99.3273H148.474C150.065 99.3273 151.258 99.0319 152.054 98.441C152.849 97.8387 153.247 96.9523 153.247 95.7819C153.247 94.9637 153.06 94.2705 152.685 93.7023C152.31 93.1341 151.776 92.7023 151.082 92.4069C150.401 92.1114 149.577 91.9637 148.611 91.9637H144.043V99.3273ZM144.043 86.1001H147.929C148.758 86.1001 149.491 85.9694 150.128 85.708C150.764 85.4466 151.258 85.0716 151.611 84.583C151.974 84.083 152.156 83.4751 152.156 82.7591C152.156 81.6796 151.77 80.8557 150.997 80.2876C150.224 79.708 149.247 79.4182 148.065 79.4182H144.043V86.1001ZM166.628 106.896V71.9864H176.105V99.2591H190.219V106.896H166.628ZM214.709 71.9864H224.186V94.3501C224.186 97.0091 223.55 99.3103 222.277 101.253C221.016 103.185 219.254 104.68 216.993 105.736C214.732 106.782 212.107 107.305 209.118 107.305C206.107 107.305 203.47 106.782 201.209 105.736C198.947 104.68 197.186 103.185 195.925 101.253C194.675 99.3103 194.05 97.0091 194.05 94.3501V71.9864H203.527V93.5319C203.527 94.6114 203.766 95.5773 204.243 96.4296C204.72 97.2705 205.379 97.9296 206.22 98.4069C207.072 98.8841 208.038 99.1228 209.118 99.1228C210.209 99.1228 211.175 98.8841 212.016 98.4069C212.857 97.9296 213.516 97.2705 213.993 96.4296C214.47 95.5773 214.709 94.6114 214.709 93.5319V71.9864ZM228.69 106.896V71.9864H253.849V79.6228H238.168V85.6228H252.554V93.2591H238.168V99.2591H253.781V106.896H228.69ZM134.565 164.896V129.986H149.702C152.361 129.986 154.594 130.344 156.401 131.06C158.219 131.776 159.588 132.788 160.508 134.094C161.44 135.401 161.906 136.941 161.906 138.714C161.906 139.998 161.622 141.168 161.054 142.225C160.497 143.282 159.713 144.168 158.702 144.884C157.69 145.589 156.508 146.077 155.156 146.35V146.691C156.656 146.748 158.02 147.128 159.247 147.833C160.474 148.526 161.452 149.486 162.179 150.714C162.906 151.93 163.27 153.361 163.27 155.009C163.27 156.918 162.77 158.617 161.77 160.106C160.781 161.594 159.372 162.765 157.543 163.617C155.713 164.469 153.531 164.896 150.997 164.896H134.565ZM144.043 157.327H148.474C150.065 157.327 151.258 157.032 152.054 156.441C152.849 155.839 153.247 154.952 153.247 153.782C153.247 152.964 153.06 152.271 152.685 151.702C152.31 151.134 151.776 150.702 151.082 150.407C150.401 150.111 149.577 149.964 148.611 149.964H144.043V157.327ZM144.043 144.1H147.929C148.758 144.1 149.491 143.969 150.128 143.708C150.764 143.447 151.258 143.072 151.611 142.583C151.974 142.083 152.156 141.475 152.156 140.759C152.156 139.68 151.77 138.856 150.997 138.288C150.224 137.708 149.247 137.418 148.065 137.418H144.043V144.1ZM166.628 164.896V129.986H181.696C184.287 129.986 186.554 130.458 188.497 131.401C190.44 132.344 191.952 133.702 193.031 135.475C194.111 137.248 194.651 139.373 194.651 141.85C194.651 144.35 194.094 146.458 192.98 148.174C191.878 149.89 190.327 151.185 188.327 152.06C186.338 152.935 184.014 153.373 181.355 153.373H172.355V146.009H179.446C180.56 146.009 181.508 145.873 182.293 145.6C183.088 145.316 183.696 144.867 184.116 144.253C184.548 143.64 184.764 142.839 184.764 141.85C184.764 140.85 184.548 140.038 184.116 139.413C183.696 138.776 183.088 138.31 182.293 138.015C181.508 137.708 180.56 137.555 179.446 137.555H176.105V164.896H166.628ZM187.082 148.873L195.81 164.896H185.514L176.991 148.873H187.082ZM208.168 129.986V164.896H198.69V129.986H208.168ZM212.659 164.896V129.986H222.136V157.259H236.25V164.896H212.659ZM240.081 164.896V129.986H249.558V157.259H263.672V164.896H240.081ZM276.98 129.986V164.896H267.503V129.986H276.98ZM290.54 164.896H280.312L291.835 129.986H304.79L316.312 164.896H306.085L298.449 139.6H298.176L290.54 164.896ZM288.631 151.123H307.858V158.214H288.631V151.123ZM349.879 129.986V164.896H341.97L329.357 146.555H329.152V164.896H319.675V129.986H327.72L340.129 148.259H340.402V129.986H349.879ZM353.408 137.623V129.986H383.749V137.623H373.249V164.896H363.908V137.623H353.408Z" fill="#4B458B"/>
<path d="M136.585 103.851V68.9417H151.722C154.381 68.9417 156.614 69.2997 158.421 70.0156C160.239 70.7315 161.608 71.7429 162.529 73.0497C163.46 74.3565 163.926 75.8963 163.926 77.669C163.926 78.9531 163.642 80.1236 163.074 81.1804C162.517 82.2372 161.733 83.1236 160.722 83.8395C159.71 84.544 158.529 85.0326 157.176 85.3054V85.6463C158.676 85.7031 160.04 86.0838 161.267 86.7883C162.495 87.4815 163.472 88.4417 164.199 89.669C164.926 90.8849 165.29 92.3167 165.29 93.9645C165.29 95.8736 164.79 97.5724 163.79 99.0611C162.801 100.55 161.392 101.72 159.563 102.572C157.733 103.425 155.551 103.851 153.017 103.851H136.585ZM146.063 96.2826H150.495C152.085 96.2826 153.279 95.9872 154.074 95.3963C154.87 94.794 155.267 93.9076 155.267 92.7372C155.267 91.919 155.08 91.2258 154.705 90.6576C154.33 90.0895 153.796 89.6576 153.102 89.3622C152.421 89.0667 151.597 88.919 150.631 88.919H146.063V96.2826ZM146.063 83.0554H149.949C150.779 83.0554 151.512 82.9247 152.148 82.6633C152.784 82.402 153.279 82.027 153.631 81.5383C153.995 81.0383 154.176 80.4304 154.176 79.7145C154.176 78.6349 153.79 77.8111 153.017 77.2429C152.245 76.6633 151.267 76.3736 150.085 76.3736H146.063V83.0554ZM168.648 103.851V68.9417H178.125V96.2145H192.239V103.851H168.648ZM216.729 68.9417H226.206V91.3054C226.206 93.9645 225.57 96.2656 224.297 98.2088C223.036 100.141 221.274 101.635 219.013 102.692C216.752 103.737 214.127 104.26 211.138 104.26C208.127 104.26 205.49 103.737 203.229 102.692C200.968 101.635 199.206 100.141 197.945 98.2088C196.695 96.2656 196.07 93.9645 196.07 91.3054V68.9417H205.547V90.4872C205.547 91.5667 205.786 92.5326 206.263 93.3849C206.74 94.2258 207.399 94.8849 208.24 95.3622C209.093 95.8395 210.058 96.0781 211.138 96.0781C212.229 96.0781 213.195 95.8395 214.036 95.3622C214.877 94.8849 215.536 94.2258 216.013 93.3849C216.49 92.5326 216.729 91.5667 216.729 90.4872V68.9417ZM230.71 103.851V68.9417H255.87V76.5781H240.188V82.5781H254.574V90.2145H240.188V96.2145H255.801V103.851H230.71ZM136.585 161.851V126.942H151.722C154.381 126.942 156.614 127.3 158.421 128.016C160.239 128.732 161.608 129.743 162.529 131.05C163.46 132.357 163.926 133.896 163.926 135.669C163.926 136.953 163.642 138.124 163.074 139.18C162.517 140.237 161.733 141.124 160.722 141.839C159.71 142.544 158.529 143.033 157.176 143.305V143.646C158.676 143.703 160.04 144.084 161.267 144.788C162.495 145.482 163.472 146.442 164.199 147.669C164.926 148.885 165.29 150.317 165.29 151.964C165.29 153.874 164.79 155.572 163.79 157.061C162.801 158.55 161.392 159.72 159.563 160.572C157.733 161.425 155.551 161.851 153.017 161.851H136.585ZM146.063 154.283H150.495C152.085 154.283 153.279 153.987 154.074 153.396C154.87 152.794 155.267 151.908 155.267 150.737C155.267 149.919 155.08 149.226 154.705 148.658C154.33 148.089 153.796 147.658 153.102 147.362C152.421 147.067 151.597 146.919 150.631 146.919H146.063V154.283ZM146.063 141.055H149.949C150.779 141.055 151.512 140.925 152.148 140.663C152.784 140.402 153.279 140.027 153.631 139.538C153.995 139.038 154.176 138.43 154.176 137.714C154.176 136.635 153.79 135.811 153.017 135.243C152.245 134.663 151.267 134.374 150.085 134.374H146.063V141.055ZM168.648 161.851V126.942H183.716C186.307 126.942 188.574 127.413 190.517 128.357C192.46 129.3 193.972 130.658 195.051 132.43C196.131 134.203 196.671 136.328 196.671 138.805C196.671 141.305 196.114 143.413 195 145.129C193.898 146.845 192.347 148.141 190.347 149.016C188.358 149.891 186.034 150.328 183.375 150.328H174.375V142.964H181.466C182.58 142.964 183.529 142.828 184.313 142.555C185.108 142.271 185.716 141.822 186.137 141.209C186.568 140.595 186.784 139.794 186.784 138.805C186.784 137.805 186.568 136.993 186.137 136.368C185.716 135.732 185.108 135.266 184.313 134.97C183.529 134.663 182.58 134.51 181.466 134.51H178.125V161.851H168.648ZM189.102 145.828L197.83 161.851H187.534L179.012 145.828H189.102ZM210.188 126.942V161.851H200.71V126.942H210.188ZM214.679 161.851V126.942H224.156V154.214H238.27V161.851H214.679ZM242.101 161.851V126.942H251.578V154.214H265.692V161.851H242.101ZM279 126.942V161.851H269.523V126.942H279ZM292.56 161.851H282.333L293.855 126.942H306.81L318.333 161.851H308.105L300.469 136.555H300.196L292.56 161.851ZM290.651 148.078H309.878V155.169H290.651V148.078ZM351.899 126.942V161.851H343.99L331.377 143.51H331.172V161.851H321.695V126.942H329.74L342.149 145.214H342.422V126.942H351.899ZM355.428 134.578V126.942H385.769V134.578H375.269V161.851H365.928V134.578H355.428Z" fill="#EEEDFF"/>
<defs>
<filter id="filter0_d_2541_6" x="269.516" y="9.64893" width="187.346" height="118.067" filterUnits="userSpaceOnUse" color-interpolation-filters="sRGB">
<feFlood flood-opacity="0" result="BackgroundImageFix"/>
<feColorMatrix in="SourceAlpha" type="matrix" values="0 0 0 0 0 0 0 0 0 0 0 0 0 0 0 0 0 0 127 0" result="hardAlpha"/>
<feOffset dy="4"/>
<feGaussianBlur stdDeviation="2"/>
<feComposite in2="hardAlpha" operator="out"/>
<feColorMatrix type="matrix" values="0 0 0 0 0.811807 0 0 0 0 0.795443 0 0 0 0 1 0 0 0 0.4 0"/>
<feBlend mode="normal" in2="BackgroundImageFix" result="effect1_dropShadow_2541_6"/>
<feBlend mode="normal" in="SourceGraphic" in2="effect1_dropShadow_2541_6" result="shape"/>
</filter>
<filter id="filter1_i_2541_6" x="318.3" y="41.6118" width="32.3213" height="25.3135" filterUnits="userSpaceOnUse" color-interpolation-filters="sRGB">
<feFlood flood-opacity="0" result="BackgroundImageFix"/>
<feBlend mode="normal" in="SourceGraphic" in2="BackgroundImageFix" result="shape"/>
<feColorMatrix in="SourceAlpha" type="matrix" values="0 0 0 0 0 0 0 0 0 0 0 0 0 0 0 0 0 0 127 0" result="hardAlpha"/>
<feOffset dy="4"/>
<feGaussianBlur stdDeviation="2"/>
<feComposite in2="hardAlpha" operator="arithmetic" k2="-1" k3="1"/>
<feColorMatrix type="matrix" values="0 0 0 0 1 0 0 0 0 0.971967 0 0 0 0 0.899886 0 0 0 1 0"/>
<feBlend mode="normal" in2="shape" result="effect1_innerShadow_2541_6"/>
</filter>
<filter id="filter2_i_2541_6" x="382.943" y="41.6118" width="29.2912" height="23.2837" filterUnits="userSpaceOnUse" color-interpolation-filters="sRGB">
<feFlood flood-opacity="0" result="BackgroundImageFix"/>
<feBlend mode="normal" in="SourceGraphic" in2="BackgroundImageFix" result="shape"/>
<feColorMatrix in="SourceAlpha" type="matrix" values="0 0 0 0 0 0 0 0 0 0 0 0 0 0 0 0 0 0 127 0" result="hardAlpha"/>
<feOffset dy="4"/>
<feGaussianBlur stdDeviation="2"/>
<feComposite in2="hardAlpha" operator="arithmetic" k2="-1" k3="1"/>
<feColorMatrix type="matrix" values="0 0 0 0 1 0 0 0 0 1 0 0 0 0 1 0 0 0 1 0"/>
<feBlend mode="normal" in2="shape" result="effect1_innerShadow_2541_6"/>
</filter>
<filter id="filter3_i_2541_6" x="273.516" y="8.63403" width="179.346" height="114.067" filterUnits="userSpaceOnUse" color-interpolation-filters="sRGB">
<feFlood flood-opacity="0" result="BackgroundImageFix"/>
<feBlend mode="normal" in="SourceGraphic" in2="BackgroundImageFix" result="shape"/>
<feColorMatrix in="SourceAlpha" type="matrix" values="0 0 0 0 0 0 0 0 0 0 0 0 0 0 0 0 0 0 127 0" result="hardAlpha"/>
<feOffset dy="4"/>
<feGaussianBlur stdDeviation="2"/>
<feComposite in2="hardAlpha" operator="arithmetic" k2="-1" k3="1"/>
<feColorMatrix type="matrix" values="0 0 0 0 0 0 0 0 0 0 0 0 0 0 0 0 0 0 0.25 0"/>
<feBlend mode="normal" in2="shape" result="effect1_innerShadow_2541_6"/>
</filter>
<filter id="filter4_i_2541_6" x="318.3" y="40.5969" width="32.3213" height="25.3135" filterUnits="userSpaceOnUse" color-interpolation-filters="sRGB">
<feFlood flood-opacity="0" result="BackgroundImageFix"/>
<feBlend mode="normal" in="SourceGraphic" in2="BackgroundImageFix" result="shape"/>
<feColorMatrix in="SourceAlpha" type="matrix" values="0 0 0 0 0 0 0 0 0 0 0 0 0 0 0 0 0 0 127 0" result="hardAlpha"/>
<feOffset dy="4"/>
<feGaussianBlur stdDeviation="2"/>
<feComposite in2="hardAlpha" operator="arithmetic" k2="-1" k3="1"/>
<feColorMatrix type="matrix" values="0 0 0 0 1 0 0 0 0 0.971967 0 0 0 0 0.899886 0 0 0 1 0"/>
<feBlend mode="normal" in2="shape" result="effect1_innerShadow_2541_6"/>
</filter>
<filter id="filter5_i_2541_6" x="382.943" y="40.5969" width="29.2912" height="23.2837" filterUnits="userSpaceOnUse" color-interpolation-filters="sRGB">
<feFlood flood-opacity="0" result="BackgroundImageFix"/>
<feBlend mode="normal" in="SourceGraphic" in2="BackgroundImageFix" result="shape"/>
<feColorMatrix in="SourceAlpha" type="matrix" values="0 0 0 0 0 0 0 0 0 0 0 0 0 0 0 0 0 0 127 0" result="hardAlpha"/>
<feOffset dy="4"/>
<feGaussianBlur stdDeviation="2"/>
<feComposite in2="hardAlpha" operator="arithmetic" k2="-1" k3="1"/>
<feColorMatrix type="matrix" values="0 0 0 0 1 0 0 0 0 1 0 0 0 0 1 0 0 0 1 0"/>
<feBlend mode="normal" in2="shape" result="effect1_innerShadow_2541_6"/>
</filter>
</defs>
</svg>
