<?xml version="1.0" standalone="no"?>
<!DOCTYPE svg PUBLIC "-//W3C//DTD SVG 20010904//EN"
 "http://www.w3.org/TR/2001/REC-SVG-20010904/DTD/svg10.dtd">
<svg version="1.0" xmlns="http://www.w3.org/2000/svg"
 width="189.000000pt" height="189.000000pt" viewBox="0 0 189.000000 189.000000"
 preserveAspectRatio="xMidYMid meet">
<metadata>
Created by potrace 1.14, written by Peter Selinger 2001-2017
</metadata>
<g transform="translate(0.000000,189.000000) scale(0.100000,-0.100000)"
fill="#000000" stroke="none">
<path d="M899 1536 c-34 -7 -98 -36 -165 -73 -307 -172 -533 -304 -563 -330
-32 -27 -33 -31 -35 -102 -1 -44 3 -80 10 -90 8 -10 9 -20 3 -28 -7 -8 -5 -10
10 -6 13 3 21 1 21 -6 0 -7 -5 -9 -10 -6 -6 3 -10 2 -10 -2 0 -5 -25 -23 -55
-41 -53 -32 -55 -35 -53 -72 2 -21 7 -36 12 -32 5 3 7 -2 3 -11 -4 -11 -1 -17
8 -17 8 0 15 -9 15 -20 0 -11 7 -20 16 -20 8 0 13 -4 10 -9 -7 -11 21 -8 31 4
4 4 2 5 -6 0 -10 -5 -12 -4 -7 4 4 6 11 9 16 6 4 -3 10 0 12 6 4 13 51 -74 51
-94 0 -7 10 -14 21 -15 17 -1 18 1 6 9 -12 9 -10 10 8 6 12 -3 22 -1 22 4 0 4
9 13 21 20 16 8 24 8 33 -2 8 -9 8 -10 -4 -5 -13 7 -13 6 0 -6 32 -28 52 -69
40 -83 -8 -9 -8 -15 0 -20 6 -4 10 -3 9 2 -4 22 3 24 26 9 23 -15 25 -15 35 7
10 20 10 21 -3 4 -9 -10 -18 -14 -20 -9 -3 4 8 16 25 26 l30 18 -7 -22 c-5
-15 -4 -20 4 -16 6 4 11 0 11 -8 0 -9 5 -16 10 -16 6 0 10 -7 10 -16 0 -8 7
-22 15 -31 8 -8 13 -19 10 -24 -9 -13 9 -11 23 3 8 8 15 8 26 -1 11 -9 16 -9
22 0 4 8 3 9 -4 5 -7 -4 -12 -3 -12 2 0 17 13 22 27 10 11 -8 12 -7 8 5 -4 8
-1 18 6 23 8 5 10 3 5 -7 -5 -8 -2 -8 6 2 18 22 57 41 68 34 6 -4 7 1 3 12 -3
10 -2 15 2 11 5 -5 23 3 41 17 28 21 34 23 44 10 7 -8 17 -15 22 -15 16 0 35
-25 32 -43 -1 -9 2 -15 7 -11 5 3 7 10 4 15 -4 5 1 9 9 9 9 0 16 -4 16 -10 0
-5 6 -7 14 -4 8 3 17 0 22 -7 5 -8 3 -10 -6 -4 -9 6 -11 4 -5 -4 5 -9 11 -9
17 -3 12 12 41 4 33 -8 -3 -5 16 3 41 17 26 15 45 22 41 16 -3 -5 0 -10 7 -10
7 0 13 7 12 15 -1 8 6 17 14 19 13 4 13 3 0 -6 -8 -6 -10 -11 -5 -11 6 0 18 8
26 17 28 31 59 53 59 43 0 -6 12 -16 26 -22 16 -8 24 -18 21 -28 -2 -9 1 -17
8 -17 7 0 11 6 8 14 -4 9 0 11 11 7 9 -3 16 -14 17 -23 0 -9 3 -11 5 -4 3 7
12 9 20 6 11 -4 12 -9 4 -18 -8 -10 -8 -15 1 -21 7 -4 9 -3 6 3 -11 18 26 26
39 9 6 -9 19 -16 28 -16 9 0 16 -5 16 -11 0 -6 6 -9 13 -6 6 2 20 0 29 -5 13
-6 16 -5 12 5 -3 8 2 17 11 21 9 3 14 10 10 16 -3 5 0 20 7 32 7 13 11 27 10
32 -2 5 7 6 20 3 22 -6 22 -5 4 8 -11 8 -16 15 -12 15 13 0 51 -23 64 -39 12
-15 13 -14 8 1 -5 18 16 42 28 31 4 -4 4 0 1 9 -4 9 1 28 10 42 9 14 15 28 13
33 -2 4 5 9 16 11 12 3 16 0 11 -8 -5 -8 -3 -11 6 -8 8 3 22 1 32 -4 11 -5 24
-5 35 1 9 6 13 11 7 11 -5 0 -3 5 5 10 8 5 16 14 16 20 1 5 2 15 3 21 0 5 5 8
10 5 5 -3 12 1 15 10 3 8 2 12 -4 9 -6 -3 -10 -1 -10 4 0 14 3 14 34 0 13 -6
23 -17 22 -23 -2 -6 -1 -8 1 -4 3 4 5 11 6 15 2 15 22 31 31 25 5 -3 6 0 2 6
-4 6 0 28 9 48 25 61 21 70 -51 105 -37 17 -62 34 -57 38 5 3 10 44 11 91 1
69 -2 89 -17 107 -21 25 -78 60 -356 220 -340 195 -352 200 -456 179z"/>
<path d="M1629 613 c-13 -16 -12 -17 4 -4 16 13 21 21 13 21 -2 0 -10 -8 -17
-17z"/>
<path d="M1655 610 c-3 -6 1 -7 9 -4 18 7 21 14 7 14 -6 0 -13 -4 -16 -10z"/>
<path d="M1119 543 c-12 -16 -12 -17 2 -6 9 7 20 9 24 5 5 -4 5 -1 1 6 -9 16
-11 15 -27 -5z"/>
<path d="M770 532 c0 -4 10 -9 22 -9 18 -2 20 0 8 7 -18 12 -30 13 -30 2z"/>
<path d="M1490 531 c0 -6 4 -13 10 -16 6 -3 7 1 4 9 -7 18 -14 21 -14 7z"/>
<path d="M666 492 c-3 -5 1 -9 9 -9 8 0 12 4 9 9 -3 4 -7 8 -9 8 -2 0 -6 -4
-9 -8z"/>
<path d="M995 479 c-4 -6 -5 -12 -2 -15 2 -3 7 2 10 11 7 17 1 20 -8 4z"/>
<path d="M1020 470 c-9 -6 -10 -10 -3 -10 6 0 15 5 18 10 8 12 4 12 -15 0z"/>
<path d="M630 449 c0 -5 5 -7 10 -4 6 3 10 8 10 11 0 2 -4 4 -10 4 -5 0 -10
-5 -10 -11z"/>
<path d="M915 450 c3 -5 8 -10 11 -10 2 0 4 5 4 10 0 6 -5 10 -11 10 -5 0 -7
-4 -4 -10z"/>
<path d="M1370 426 c0 -2 8 -10 18 -17 15 -13 16 -12 3 4 -13 16 -21 21 -21
13z"/>
</g>
</svg>
